<?xml version="1.0" encoding="UTF-8" standalone="no"?>
<!-- Created with Inkscape (http://www.inkscape.org/) -->

<svg
   xmlns:dc="http://purl.org/dc/elements/1.1/"
   xmlns:cc="http://creativecommons.org/ns#"
   xmlns:rdf="http://www.w3.org/1999/02/22-rdf-syntax-ns#"
   xmlns:svg="http://www.w3.org/2000/svg"
   xmlns="http://www.w3.org/2000/svg"
   xmlns:sodipodi="http://sodipodi.sourceforge.net/DTD/sodipodi-0.dtd"
   xmlns:inkscape="http://www.inkscape.org/namespaces/inkscape"
   width="64"
   height="64"
   viewBox="0 0 16.933333 16.933334"
   version="1.1"
   id="svg1989"
   inkscape:version="0.92.4 (5da689c313, 2019-01-14)"
   sodipodi:docname="icon_health_upgrade.svg">
  <defs
     id="defs1983" />
  <sodipodi:namedview
     id="base"
     pagecolor="#ffffff"
     bordercolor="#666666"
     borderopacity="1.0"
     inkscape:pageopacity="0.0"
     inkscape:pageshadow="2"
     inkscape:zoom="5.6"
     inkscape:cx="-7.0836733"
     inkscape:cy="8.7520086"
     inkscape:document-units="px"
     inkscape:current-layer="layer1"
     showgrid="false"
     units="px"
     inkscape:window-width="1920"
     inkscape:window-height="1017"
     inkscape:window-x="1912"
     inkscape:window-y="-8"
     inkscape:window-maximized="1" />
  <metadata
     id="metadata1986">
    <rdf:RDF>
      <cc:Work
         rdf:about="">
        <dc:format>image/svg+xml</dc:format>
        <dc:type
           rdf:resource="http://purl.org/dc/dcmitype/StillImage" />
        <dc:title></dc:title>
      </cc:Work>
    </rdf:RDF>
  </metadata>
  <g
     inkscape:label="Layer 1"
     inkscape:groupmode="layer"
     id="layer1"
     transform="translate(0,-280.06665)">
    <g
       transform="matrix(0.07378222,0.10021798,-0.10021798,0.07378222,111.79169,207.43719)"
       id="layer1-8"
       inkscape:label="Layer 1">
      <path
         style="opacity:1;fill:#4b5bab;fill-opacity:1;stroke:#4da6ff;stroke-width:7.57400036;stroke-linecap:square;stroke-linejoin:miter;stroke-miterlimit:4;stroke-dasharray:none;stroke-dashoffset:0;stroke-opacity:1;paint-order:fill markers stroke"
         inkscape:transform-center-x="-1.0364481"
         inkscape:transform-center-y="-2.0476536"
         d="m 75.472461,1081.3801 c -1.4188,2.6538 -6.2076,4.644 -12.6813,5.9709 -6.4738,1.3269 -14.6325,-10.0941 -22.7912,-10.0941 -8.1586,0 -16.3172,11.421 -22.791,10.0941 -6.4737,-1.3269 -11.2625,-3.3171 -12.6814,-5.9709 -5.6757,-10.6149 24.1212,-66.3431 35.4724,-66.3431 11.3512,0 41.1481,55.7282 35.4725,66.3431 z"
         id="path2602"
         inkscape:connector-curvature="0"
         sodipodi:nodetypes="sscscss" />
    </g>
    <path
       style="opacity:1;fill:#4233c7;fill-opacity:1;stroke:#57a8e9;stroke-width:0.37021169;stroke-miterlimit:4;stroke-dasharray:none;stroke-opacity:1"
       d="m 15.087135,281.43728 c -0.178913,0 -0.357651,0.31009 -0.715477,0.92987 -0.589757,1.02147 -0.678649,1.19833 0.104119,1.22994 v 1.71403 c 0,0.0994 0.0691,0.17968 0.154738,0.17968 h 0.913598 c 0.08563,0 0.154736,-0.0803 0.154736,-0.17968 v -1.71403 c 0.782771,-0.0316 0.69388,-0.20847 0.104118,-1.22994 -0.357825,-0.61978 -0.536925,-0.92987 -0.715838,-0.92987 z"
       id="path2623"
       inkscape:connector-curvature="0" />
    <rect
       style="opacity:1;fill:#f63b3b;fill-opacity:1;stroke:#851111;stroke-width:0.5291667;stroke-miterlimit:4;stroke-dasharray:none;stroke-opacity:1"
       id="rect2645"
       width="7.606771"
       height="1.984375"
       x="4.6139221"
       y="282.47186"
       rx="0.22094879"
       ry="0.25634608" />
  </g>
</svg>
