<?xml version="1.0" encoding="UTF-8" standalone="no"?>
<!-- Created with Inkscape (http://www.inkscape.org/) -->

<svg
   xmlns:dc="http://purl.org/dc/elements/1.1/"
   xmlns:cc="http://creativecommons.org/ns#"
   xmlns:rdf="http://www.w3.org/1999/02/22-rdf-syntax-ns#"
   xmlns:svg="http://www.w3.org/2000/svg"
   xmlns="http://www.w3.org/2000/svg"
   xmlns:sodipodi="http://sodipodi.sourceforge.net/DTD/sodipodi-0.dtd"
   xmlns:inkscape="http://www.inkscape.org/namespaces/inkscape"
   width="64"
   height="64"
   viewBox="0 0 16.933333 16.933334"
   version="1.1"
   id="svg1375"
   inkscape:version="0.92.4 (5da689c313, 2019-01-14)"
   sodipodi:docname="icon_weapon_upgrade.svg">
  <defs
     id="defs1369" />
  <sodipodi:namedview
     id="base"
     pagecolor="#ffffff"
     bordercolor="#666666"
     borderopacity="1.0"
     inkscape:pageopacity="0.0"
     inkscape:pageshadow="2"
     inkscape:zoom="5.5625"
     inkscape:cx="-10.462364"
     inkscape:cy="23.259028"
     inkscape:document-units="px"
     inkscape:current-layer="layer1-5"
     showgrid="false"
     units="px"
     inkscape:window-width="1920"
     inkscape:window-height="1017"
     inkscape:window-x="1912"
     inkscape:window-y="-8"
     inkscape:window-maximized="1" />
  <metadata
     id="metadata1372">
    <rdf:RDF>
      <cc:Work
         rdf:about="">
        <dc:format>image/svg+xml</dc:format>
        <dc:type
           rdf:resource="http://purl.org/dc/dcmitype/StillImage" />
        <dc:title />
      </cc:Work>
    </rdf:RDF>
  </metadata>
  <g
     inkscape:label="Layer 1"
     inkscape:groupmode="layer"
     id="layer1"
     transform="translate(0,-280.06665)">
    <g
       transform="matrix(0.07051144,0.06648794,-0.06648794,0.07051144,73.720851,213.96649)"
       id="layer1-2"
       inkscape:label="Layer 1">
      <path
         style="opacity:1;fill:#4b5bab;fill-opacity:1;stroke:#4da6ff;stroke-width:7.57400036;stroke-linecap:square;stroke-linejoin:miter;stroke-miterlimit:4;stroke-dasharray:none;stroke-dashoffset:0;stroke-opacity:1;paint-order:fill markers stroke"
         inkscape:transform-center-x="-1.0364481"
         inkscape:transform-center-y="-2.0476536"
         d="m 75.472461,1081.3801 c -1.4188,2.6538 -6.2076,4.644 -12.6813,5.9709 -6.4738,1.3269 -14.6325,-10.0941 -22.7912,-10.0941 -8.1586,0 -16.3172,11.421 -22.791,10.0941 -6.4737,-1.3269 -11.2625,-3.3171 -12.6814,-5.9709 -5.6757,-10.6149 24.1212,-66.3431 35.4724,-66.3431 11.3512,0 41.1481,55.7282 35.4725,66.3431 z"
         id="path2602"
         inkscape:connector-curvature="0"
         sodipodi:nodetypes="sscscss" />
    </g>
    <g
       transform="matrix(0.03453908,-0.03005043,0.03005043,0.03453908,-20.825515,249.35818)"
       id="layer1-5"
       inkscape:label="Layer 1">
      <path
         id="rect2852"
         style="opacity:1;fill:#4b5bab;fill-opacity:1;stroke:#c4eefc;stroke-width:8.28695869;stroke-linecap:square;stroke-linejoin:miter;stroke-miterlimit:4;stroke-dasharray:none;stroke-dashoffset:0;stroke-opacity:1;paint-order:fill markers stroke"
         d="m -13.512274,1052.1576 h 43.7653 c 9.8275,0 17.739168,7.9117 17.739168,17.7392 0,9.8275 -7.911668,17.7391 -17.739168,17.7391 h -43.7653 c -9.8275,0 -17.739168,-7.9116 -17.739168,-17.7391 0,-9.8275 7.911668,-17.7392 17.739168,-17.7392 z"
         inkscape:connector-curvature="0" />
      <path
         style="opacity:1;fill:#4233c7;fill-opacity:1;stroke:#57a8e9;stroke-width:8.0864315;stroke-miterlimit:4;stroke-dasharray:none;stroke-opacity:1"
         d="m 137.06071,1030.9137 c -2.94827,-2.5652 -10.33947,-0.018 -25.1219,5.0651 -24.363482,8.3771 -28.363992,10.0171 -15.918152,21.7607 l -24.57438,28.2451 c -1.42512,1.6379 -1.43743,3.9516 -0.0262,5.1794 l 15.05495,13.0984 c 1.41108,1.2277 3.70114,0.8952 5.12597,-0.7424 l 24.574392,-28.2451 c 13.35214,10.702 14.42315,6.513 19.34962,-18.7751 2.9894,-15.3434 4.48388,-23.0211 1.53562,-25.5862 z"
         id="path2623"
         inkscape:connector-curvature="0" />
    </g>
  </g>
</svg>
