<?xml version="1.0" encoding="UTF-8" standalone="no"?>
<!-- Created with Inkscape (http://www.inkscape.org/) -->

<svg
   xmlns:dc="http://purl.org/dc/elements/1.1/"
   xmlns:cc="http://creativecommons.org/ns#"
   xmlns:rdf="http://www.w3.org/1999/02/22-rdf-syntax-ns#"
   xmlns:svg="http://www.w3.org/2000/svg"
   xmlns="http://www.w3.org/2000/svg"
   xmlns:sodipodi="http://sodipodi.sourceforge.net/DTD/sodipodi-0.dtd"
   xmlns:inkscape="http://www.inkscape.org/namespaces/inkscape"
   width="1920"
   height="1080"
   viewBox="0 0 507.99999 285.75001"
   version="1.1"
   id="svg8"
   inkscape:version="0.92.4 (5da689c313, 2019-01-14)"
   sodipodi:docname="splash.svg">
  <defs
     id="defs2" />
  <sodipodi:namedview
     id="base"
     pagecolor="#ffffff"
     bordercolor="#666666"
     borderopacity="1.0"
     inkscape:pageopacity="0.0"
     inkscape:pageshadow="2"
     inkscape:zoom="0.49497475"
     inkscape:cx="632.48744"
     inkscape:cy="493.63699"
     inkscape:document-units="px"
     inkscape:current-layer="layer1"
     showgrid="false"
     units="px"
     inkscape:window-width="1920"
     inkscape:window-height="1017"
     inkscape:window-x="1912"
     inkscape:window-y="-8"
     inkscape:window-maximized="1"
     inkscape:snap-page="false" />
  <metadata
     id="metadata5">
    <rdf:RDF>
      <cc:Work
         rdf:about="">
        <dc:format>image/svg+xml</dc:format>
        <dc:type
           rdf:resource="http://purl.org/dc/dcmitype/StillImage" />
        <dc:title />
      </cc:Work>
    </rdf:RDF>
  </metadata>
  <g
     inkscape:label="Layer 1"
     inkscape:groupmode="layer"
     id="layer1"
     transform="translate(0,-11.249983)">
    <g
       transform="matrix(-0.25598361,0.36398978,-0.36398978,-0.25598361,649.1951,450.78257)"
       id="layer1-6"
       inkscape:label="Layer 1">
      <path
         style="opacity:1;fill:#4b5bab;fill-opacity:1;stroke:#4da6ff;stroke-width:7.57400036;stroke-linecap:square;stroke-linejoin:miter;stroke-miterlimit:4;stroke-dasharray:none;stroke-dashoffset:0;stroke-opacity:1;paint-order:fill markers stroke"
         inkscape:transform-center-x="-1.0364481"
         inkscape:transform-center-y="-2.0476536"
         d="m 75.472461,1081.3801 c -1.4188,2.6538 -6.2076,4.644 -12.6813,5.9709 -6.4738,1.3269 -14.6325,-10.0941 -22.7912,-10.0941 -8.1586,0 -16.3172,11.421 -22.791,10.0941 -6.4737,-1.3269 -11.2625,-3.3171 -12.6814,-5.9709 -5.6757,-10.6149 24.1212,-66.3431 35.4724,-66.3431 11.3512,0 41.1481,55.7282 35.4725,66.3431 z"
         id="path2602"
         inkscape:connector-curvature="0"
         sodipodi:nodetypes="sscscss" />
    </g>
    <g
       transform="matrix(-0.27090816,0.35302259,-0.35302259,-0.27090816,498.0147,378.43513)"
       id="layer1-3"
       inkscape:label="Layer 1">
      <path
         sodipodi:nodetypes="sscscss"
         inkscape:connector-curvature="0"
         id="path2646"
         d="m 75.472461,1081.3801 c -1.4188,2.6538 -6.2076,4.644 -12.6813,5.9709 -6.4738,1.3269 -14.6325,-10.0941 -22.7912,-10.0941 -8.1586,0 -16.3172,11.421 -22.791,10.0941 -6.473701,-1.3269 -11.2625003,-3.3171 -12.6814003,-5.9709 -5.6757,-10.6149 24.1212003,-66.3431 35.4724003,-66.3431 11.3512,0 41.1481,55.7282 35.4725,66.3431 z"
         inkscape:transform-center-y="-2.0476536"
         inkscape:transform-center-x="-1.0364484"
         style="opacity:1;fill:#e36956;fill-opacity:1;stroke:#ff9166;stroke-width:7.57400036;stroke-linecap:square;stroke-linejoin:miter;stroke-miterlimit:4;stroke-dasharray:none;stroke-dashoffset:0;stroke-opacity:1;paint-order:fill markers stroke" />
    </g>
    <g
       transform="matrix(0.76794095,0,0,0.76794095,41.374397,-551.64057)"
       id="layer1-8"
       inkscape:label="Layer 1">
      <g
         style="stroke-width:1.0315299"
         id="g2838"
         transform="matrix(0.91868508,0.26559615,-0.2729375,0.94407846,703.60621,-6.7259665)">
        <rect
           style="opacity:1;fill:#ffffeb;fill-opacity:1;stroke:none;stroke-width:8.25223923;stroke-linecap:square;stroke-linejoin:miter;stroke-miterlimit:4;stroke-dasharray:none;stroke-dashoffset:0;stroke-opacity:1;paint-order:fill markers stroke"
           id="rect2830"
           width="167.31024"
           height="152.63438"
           x="-413.0061"
           y="1099.9095"
           ry="69.279625"
           inkscape:export-xdpi="96"
           inkscape:export-ydpi="96" />
        <rect
           ry="61.483768"
           y="1108.4973"
           x="-403.59253"
           height="135.45885"
           width="148.48326"
           id="rect2832"
           style="opacity:1;fill:#ffb570;fill-opacity:1;stroke:none;stroke-width:8.25223923;stroke-linecap:square;stroke-linejoin:miter;stroke-miterlimit:4;stroke-dasharray:none;stroke-dashoffset:0;stroke-opacity:1;paint-order:fill markers stroke"
           inkscape:export-xdpi="96"
           inkscape:export-ydpi="96" />
        <rect
           style="opacity:1;fill:#e36956;fill-opacity:1;stroke:none;stroke-width:8.25223827;stroke-linecap:square;stroke-linejoin:miter;stroke-miterlimit:4;stroke-dasharray:none;stroke-dashoffset:0;stroke-opacity:1;paint-order:fill markers stroke"
           id="rect2834"
           width="112.57077"
           height="102.69646"
           x="-385.63647"
           y="1124.8784"
           ry="46.613167"
           inkscape:export-xdpi="96"
           inkscape:export-ydpi="96" />
        <rect
           ry="32.389111"
           y="1140.5474"
           x="-368.46118"
           height="71.358528"
           width="78.219681"
           id="rect2836"
           style="opacity:1;fill:#57294b;fill-opacity:1;stroke:none;stroke-width:8.25223827;stroke-linecap:square;stroke-linejoin:miter;stroke-miterlimit:4;stroke-dasharray:none;stroke-dashoffset:0;stroke-opacity:1;paint-order:fill markers stroke"
           inkscape:export-xdpi="96"
           inkscape:export-ydpi="96" />
      </g>
    </g>
    <g
       inkscape:label="Layer 1"
       id="g895"
       transform="matrix(3.5134664e-4,-0.20667464,0.20667464,3.5134664e-4,141.96517,146.71782)"
       inkscape:transform-center-x="-0.65604892"
       inkscape:transform-center-y="0.78483864">
      <g
         transform="matrix(0.95630727,0,0,0.98274056,394.96074,-139.67572)"
         id="g893"
         style="stroke-width:1.0315299">
        <rect
           inkscape:export-ydpi="96"
           inkscape:export-xdpi="96"
           ry="69.279625"
           y="1099.9095"
           x="-413.0061"
           height="152.63438"
           width="167.31024"
           id="rect885"
           style="opacity:1;fill:#ffffeb;fill-opacity:1;stroke:none;stroke-width:8.25223923;stroke-linecap:square;stroke-linejoin:miter;stroke-miterlimit:4;stroke-dasharray:none;stroke-dashoffset:0;stroke-opacity:1;paint-order:fill markers stroke" />
        <rect
           inkscape:export-ydpi="96"
           inkscape:export-xdpi="96"
           style="opacity:1;fill:#ffb570;fill-opacity:1;stroke:none;stroke-width:8.25223923;stroke-linecap:square;stroke-linejoin:miter;stroke-miterlimit:4;stroke-dasharray:none;stroke-dashoffset:0;stroke-opacity:1;paint-order:fill markers stroke"
           id="rect887"
           width="148.48326"
           height="135.45885"
           x="-403.59253"
           y="1108.4973"
           ry="61.483768" />
        <rect
           inkscape:export-ydpi="96"
           inkscape:export-xdpi="96"
           ry="46.613167"
           y="1124.8784"
           x="-385.63647"
           height="102.69646"
           width="112.57077"
           id="rect889"
           style="opacity:1;fill:#e36956;fill-opacity:1;stroke:none;stroke-width:8.25223827;stroke-linecap:square;stroke-linejoin:miter;stroke-miterlimit:4;stroke-dasharray:none;stroke-dashoffset:0;stroke-opacity:1;paint-order:fill markers stroke" />
        <rect
           inkscape:export-ydpi="96"
           inkscape:export-xdpi="96"
           style="opacity:1;fill:#57294b;fill-opacity:1;stroke:none;stroke-width:8.25223827;stroke-linecap:square;stroke-linejoin:miter;stroke-miterlimit:4;stroke-dasharray:none;stroke-dashoffset:0;stroke-opacity:1;paint-order:fill markers stroke"
           id="rect891"
           width="78.219681"
           height="71.358528"
           x="-368.46118"
           y="1140.5474"
           ry="32.389111" />
      </g>
    </g>
    <g
       inkscape:transform-center-y="1.8507411"
       inkscape:transform-center-x="-0.41242534"
       transform="matrix(0.08623387,-0.0814129,0.0814129,0.08623387,202.13466,191.0734)"
       id="g907"
       inkscape:label="Layer 1">
      <g
         style="stroke-width:1.0315299"
         id="g905"
         transform="matrix(0.95630727,0,0,0.98274056,394.96074,-139.67572)">
        <rect
           style="opacity:1;fill:#ffffeb;fill-opacity:1;stroke:none;stroke-width:8.25223923;stroke-linecap:square;stroke-linejoin:miter;stroke-miterlimit:4;stroke-dasharray:none;stroke-dashoffset:0;stroke-opacity:1;paint-order:fill markers stroke"
           id="rect897"
           width="167.31024"
           height="152.63438"
           x="-413.0061"
           y="1099.9095"
           ry="69.279625"
           inkscape:export-xdpi="96"
           inkscape:export-ydpi="96" />
        <rect
           ry="61.483768"
           y="1108.4973"
           x="-403.59253"
           height="135.45885"
           width="148.48326"
           id="rect899"
           style="opacity:1;fill:#ffb570;fill-opacity:1;stroke:none;stroke-width:8.25223923;stroke-linecap:square;stroke-linejoin:miter;stroke-miterlimit:4;stroke-dasharray:none;stroke-dashoffset:0;stroke-opacity:1;paint-order:fill markers stroke"
           inkscape:export-xdpi="96"
           inkscape:export-ydpi="96" />
        <rect
           style="opacity:1;fill:#e36956;fill-opacity:1;stroke:none;stroke-width:8.25223827;stroke-linecap:square;stroke-linejoin:miter;stroke-miterlimit:4;stroke-dasharray:none;stroke-dashoffset:0;stroke-opacity:1;paint-order:fill markers stroke"
           id="rect901"
           width="112.57077"
           height="102.69646"
           x="-385.63647"
           y="1124.8784"
           ry="46.613167"
           inkscape:export-xdpi="96"
           inkscape:export-ydpi="96" />
        <rect
           ry="32.389111"
           y="1140.5474"
           x="-368.46118"
           height="71.358528"
           width="78.219681"
           id="rect903"
           style="opacity:1;fill:#57294b;fill-opacity:1;stroke:none;stroke-width:8.25223827;stroke-linecap:square;stroke-linejoin:miter;stroke-miterlimit:4;stroke-dasharray:none;stroke-dashoffset:0;stroke-opacity:1;paint-order:fill markers stroke"
           inkscape:export-xdpi="96"
           inkscape:export-ydpi="96" />
      </g>
    </g>
    <g
       transform="matrix(-0.20990106,-0.16107726,0.16107726,-0.20990106,-15.915055,363.421)"
       id="layer1-88"
       inkscape:label="Layer 1">
      <rect
         inkscape:export-ydpi="96"
         inkscape:export-xdpi="96"
         style="opacity:1;fill:#eb564b;fill-opacity:1;stroke:#ffffeb;stroke-width:7.57399988;stroke-linecap:square;stroke-linejoin:miter;stroke-miterlimit:4;stroke-dasharray:none;stroke-dashoffset:0;stroke-opacity:1;paint-order:fill markers stroke"
         id="rect2846"
         width="70.710678"
         height="32.526913"
         x="4.6446609"
         y="1054.9866"
         ry="16.263456" />
    </g>
    <g
       inkscape:label="Layer 1"
       id="g925"
       transform="matrix(-0.20990106,-0.16107726,0.16107726,-0.20990106,13.327543,389.64062)">
      <rect
         ry="16.263456"
         y="1054.9866"
         x="4.6446609"
         height="32.526913"
         width="70.710678"
         id="rect923"
         style="opacity:1;fill:#eb564b;fill-opacity:1;stroke:#ffffeb;stroke-width:7.57399988;stroke-linecap:square;stroke-linejoin:miter;stroke-miterlimit:4;stroke-dasharray:none;stroke-dashoffset:0;stroke-opacity:1;paint-order:fill markers stroke"
         inkscape:export-xdpi="96"
         inkscape:export-ydpi="96" />
    </g>
    <g
       transform="matrix(-0.20990106,-0.16107726,0.16107726,-0.20990106,41.094828,416.04585)"
       id="g929"
       inkscape:label="Layer 1">
      <rect
         inkscape:export-ydpi="96"
         inkscape:export-xdpi="96"
         style="opacity:1;fill:#eb564b;fill-opacity:1;stroke:#ffffeb;stroke-width:7.57399988;stroke-linecap:square;stroke-linejoin:miter;stroke-miterlimit:4;stroke-dasharray:none;stroke-dashoffset:0;stroke-opacity:1;paint-order:fill markers stroke"
         id="rect927"
         width="70.710678"
         height="32.526913"
         x="4.6446609"
         y="1054.9866"
         ry="16.263456" />
    </g>
    <path
       sodipodi:nodetypes="sscscss"
       inkscape:connector-curvature="0"
       id="path931"
       d="m 415.09293,30.242638 c 1.2332,-0.521896 3.44739,0.128261 6.05935,1.479169 2.61198,1.350936 2.24255,7.585792 5.06674,9.867187 2.82416,2.281368 8.84194,0.609276 10.71186,2.878843 1.86988,2.26954 2.97104,4.297541 2.72013,5.612936 -1.00354,5.261504 -26.90107,16.220186 -30.83037,13.04608 -3.9293,-3.174106 1.33942,-30.796845 6.27229,-32.884215 z"
       inkscape:transform-center-y="-2.0476536"
       inkscape:transform-center-x="-1.0364484"
       style="opacity:1;fill:#e36956;fill-opacity:1;stroke:#ff9166;stroke-width:3.37035513;stroke-linecap:square;stroke-linejoin:miter;stroke-miterlimit:4;stroke-dasharray:none;stroke-dashoffset:0;stroke-opacity:1;paint-order:fill markers stroke" />
    <g
       aria-label="ARVESTER"
       style="font-style:normal;font-weight:normal;font-size:10.58333397px;line-height:1.25;font-family:sans-serif;letter-spacing:0px;word-spacing:0px;fill:#ffffff;fill-opacity:1;stroke:none;stroke-width:0.26458335"
       id="text949">
      <path
         d="m 141.56988,81.340141 q 0,0.558106 -0.77515,0.775147 -0.93017,0.248047 -5.76709,0.248047 -4.43383,0 -5.70507,-0.248047 -1.0542,-0.217041 -1.33326,-1.395264 -1.0542,-4.464844 -1.64331,-4.774903 -0.49609,-0.217041 -8.30957,-0.217041 -5.27099,0 -5.61206,0.279053 -0.5271,0.496094 -1.17822,3.317627 -0.58911,2.573487 -1.42627,2.790528 -1.0542,0.248047 -7.06934,0.248047 -4.743895,0 -4.743895,-0.89917 0,-0.806153 7.007325,-19.812746 7.59644,-20.556886 8.24756,-22.603272 0.37207,-1.178223 0.86816,-1.178223 0.83716,0 2.57349,0.155029 1.76733,0.155029 2.6355,0.155029 0.83716,0 2.44946,-0.09302 1.64331,-0.124024 2.44946,-0.124024 0.58912,0 1.08521,1.023194 1.51929,3.255615 8.86768,22.32422 7.37939,19.192628 7.37939,20.029786 z M 119.58672,53.093802 q -0.65112,1.364258 -2.20141,5.922119 -1.67432,4.836915 -1.67432,5.674073 0,0.558105 1.86035,0.620117 0.96119,0.06201 3.1626,0.06201 2.04639,0 2.26343,-0.496094 0.062,-0.155029 0.062,-0.434082 0,-1.023194 -1.42627,-5.643067 -1.39526,-4.464844 -2.04639,-5.705078 z"
         style="font-style:normal;font-variant:normal;font-weight:normal;font-stretch:normal;font-size:63.50000381px;font-family:'Berlin Sans FB Demi';-inkscape-font-specification:'Berlin Sans FB Demi';fill:#ffffff;fill-opacity:1;stroke-width:0.26458335"
         id="path861" />
      <path
         d="m 181.66046,81.805229 q 0,0.217041 -0.62012,0.310059 -1.17822,0.186035 -5.92212,0.186035 -4.06176,0 -5.51904,-0.186035 -0.68213,-0.09302 -0.77515,-0.15503 -0.18603,-0.09302 -0.43408,-0.620117 -0.46509,-1.209228 -1.36426,-3.59668 -1.20923,-3.100586 -3.78271,-9.146729 -0.55811,-1.209228 -2.57349,-1.333252 0.93018,0.06201 -3.1936,0.06201 -0.46509,0 -0.46509,1.581299 0,2.108398 0.37207,6.29419 0.40308,4.185791 0.40308,6.29419 0,0.527099 -0.27906,0.620117 -0.43408,0.03101 -0.86816,0.06201 -1.82935,0.124023 -5.70508,0.124023 -4.43384,0 -5.33301,-0.186035 -0.89917,-0.186035 -0.89917,-0.961182 0,-3.410645 0.31006,-10.293946 0.34107,-6.883301 0.34107,-10.324952 0,-13.115479 -0.58911,-20.463868 l -0.031,-0.434082 q -0.031,-0.5271 0.96118,-0.713135 1.02319,-0.186035 9.48779,-0.37207 5.73609,-0.124024 9.14673,-0.124024 7.06934,0 11.53418,3.193604 5.05396,3.59668 5.05396,10.386964 0,4.526855 -1.30225,7.224365 -1.30224,2.69751 -4.80591,5.239991 -0.71313,0.496094 -0.71313,0.930176 0,-0.03101 3.78271,7.782471 3.78272,7.813477 3.78272,8.619629 z M 168.638,53.992972 q 0,-3.782715 -2.48047,-5.239991 -1.92236,-1.116211 -6.01514,-1.116211 -2.94555,0 -3.13159,0.89917 -0.18603,1.054199 -0.18603,6.077149 0,0.713135 0.031,2.108398 0.031,1.395264 0.031,2.077393 0,0.155029 0.99218,0.310059 1.89136,0.279052 3.96875,0.279052 6.79029,0 6.79029,-5.395019 z"
         style="font-style:normal;font-variant:normal;font-weight:normal;font-stretch:normal;font-size:63.50000381px;font-family:'Berlin Sans FB Demi';-inkscape-font-specification:'Berlin Sans FB Demi';fill:#ffffff;fill-opacity:1;stroke-width:0.26458335"
         id="path863" />
      <path
         d="m 202.65143,82.239311 q -4.18579,0 -4.7749,-0.124023 -0.58911,-0.124024 -0.99219,-0.89917 -3.53467,-6.976319 -7.10034,-13.983644 -5.61206,-11.255127 -5.61206,-12.743409 0,-2.449463 0.15503,-7.348389 0.18603,-4.929932 0.18603,-7.379395 0,-1.147217 0.62012,-1.147217 1.86035,0 5.64306,0.15503 3.78272,0.155029 5.67408,0.155029 0.77514,0 0.77514,0.651123 0,2.511475 -0.37207,7.56543 -0.34106,5.02295 -0.34106,7.534425 0,1.922363 6.29419,13.735596 1.70532,-3.06958 3.87573,-7.534424 2.91455,-6.015137 2.91455,-7.379395 0,-2.263428 -0.062,-6.790284 -0.062,-4.557861 -0.062,-6.821289 0,-0.837158 0.27905,-0.930176 0,0 0.99219,0 1.70532,0 5.14697,-0.155029 3.47266,-0.186036 5.17798,-0.186036 0.93018,0 0.93018,0.744141 0,2.387451 -0.093,7.224366 -0.062,4.805908 -0.062,7.224365 0,1.922364 -6.10816,14.138673 -2.41845,4.402832 -6.97632,13.270509 -0.31005,0.682129 -0.43408,0.775146 -0.093,0.06201 -0.77514,0.124024 -1.5813,0.124023 -4.89893,0.124023 z"
         style="font-style:normal;font-variant:normal;font-weight:normal;font-stretch:normal;font-size:63.50000381px;font-family:'Berlin Sans FB Demi';-inkscape-font-specification:'Berlin Sans FB Demi';fill:#ffffff;fill-opacity:1;stroke-width:0.26458335"
         id="path865" />
      <path
         d="m 258.30696,72.472465 q 0,1.333252 -0.5271,4.898926 -0.55811,3.875733 -0.99219,4.619873 -0.37207,0.589112 -1.0232,0.589112 -0.27905,0 -0.93017,-0.09302 -2.26343,-0.310058 -13.2085,-0.310058 -2.38745,0 -7.10034,-0.03101 -4.71289,-0.03101 -7.06934,-0.03101 -1.02319,0 -1.02319,-0.89917 0,-3.472657 0.37207,-10.41797 0.40308,-6.976318 0.40308,-10.448975 0,-3.534668 -0.37207,-13.177491 -0.093,-2.480469 -0.34107,-7.410401 l -0.031,-0.434082 q -0.062,-0.713135 0.77514,-0.713135 2.29444,0 6.8833,0.124024 4.61988,0.124023 6.91431,0.124023 2.26343,0 6.82129,-0.124023 4.55786,-0.124024 6.82129,-0.124024 1.6123,0 1.86035,1.209229 0.15503,0.713135 0.46509,4.340821 0.34106,3.59668 0.34106,4.371826 0,0.651123 -0.62011,0.651123 -0.18604,0 -0.65113,-0.03101 -8.24756,-0.682129 -14.8208,-0.682129 -1.64331,0 -2.01538,0.775147 -0.15503,0.37207 -0.15503,2.387451 0,2.108399 0.62012,2.790528 0.5271,0.589111 2.01538,0.589111 0.31006,0 1.20923,-0.03101 0.89917,-0.06201 1.48828,-0.06201 3.90674,0 7.90649,-0.217041 0.34107,-0.03101 1.70533,-0.155029 1.0542,-0.124023 1.67431,-0.124023 0.74414,0 0.74414,0.713135 0,-0.651124 -0.5581,4.743896 -0.24805,2.480469 -0.24805,4.960938 0,0.620117 -0.89917,0.620117 0,0 -2.79053,-0.310058 -1.76733,-0.186035 -8.06152,-0.186035 h -3.28662 q -1.27124,0 -1.48828,0.620117 -0.031,0.155029 -0.031,1.922363 0,2.356446 0.31006,3.038575 0.5271,1.178222 3.96875,1.395263 -0.062,0 4.52686,0 1.64331,0 4.86792,-0.279052 3.25561,-0.310059 4.86792,-0.310059 0.68213,0 0.68213,1.116211 z"
         style="font-style:normal;font-variant:normal;font-weight:normal;font-stretch:normal;font-size:63.50000381px;font-family:'Berlin Sans FB Demi';-inkscape-font-specification:'Berlin Sans FB Demi';fill:#ffffff;fill-opacity:1;stroke-width:0.26458335"
         id="path867" />
      <path
         d="m 283.54572,67.852592 q 0,6.294189 -5.302,10.790039 -4.65088,3.968751 -11.31714,5.053956 -0.24804,0.03101 -0.40307,0.03101 -0.71314,0 -3.1626,-4.340821 -2.44946,-4.371826 -2.44946,-5.333008 0,-0.341065 0.46508,-0.434082 4.49585,-1.023194 5.95313,-1.736328 3.22461,-1.612305 3.22461,-4.774903 0,-2.015381 -2.1084,-4.49585 -3.65869,-4.216797 -3.96875,-4.681885 -2.1394,-3.22461 -2.1394,-7.131348 0,-5.674073 5.23999,-9.425782 4.2788,-3.100586 10.51098,-4.030762 0.34107,-0.03101 0.5271,-0.03101 0.46509,0 0.74414,0.744141 0.80616,2.263428 3.75171,8.185547 0.093,0.186035 0.093,0.310059 0,0.5271 -0.55811,0.5271 -0.24804,0 -0.83715,-0.09302 -0.58912,-0.09302 -0.89917,-0.09302 -2.23243,0 -3.90674,1.023194 -2.01538,1.178223 -2.01538,3.286621 0,1.891358 2.23242,4.650879 3.93774,4.960938 4.12378,5.208985 2.20141,3.410645 2.20141,6.790284 z"
         style="font-style:normal;font-variant:normal;font-weight:normal;font-stretch:normal;font-size:63.50000381px;font-family:'Berlin Sans FB Demi';-inkscape-font-specification:'Berlin Sans FB Demi';fill:#ffffff;fill-opacity:1;stroke-width:0.26458335"
         id="path869" />
      <path
         d="m 318.8924,48.101858 q 0,0.620117 -0.68212,0.620117 -1.17823,0 -9.33277,-0.465088 -0.18603,7.844483 -0.18603,10.945069 0,3.658692 0.27905,11.007081 0.31006,7.348389 0.31006,11.007081 0,0.589111 -0.27906,0.74414 -0.093,0.06201 -0.86816,0.15503 -1.86035,0.248047 -5.45703,0.248047 -3.99976,0 -5.61206,-0.248047 -0.86817,-0.15503 -0.86817,-0.961182 0,-3.658692 0.31006,-10.976075 0.31006,-7.317383 0.31006,-10.976075 0,-2.418457 -0.24805,-10.790039 -6.20117,0.620117 -9.89087,0.620117 -0.49609,0 -0.49609,-0.310059 0,-0.403076 0.43408,-2.387451 0.4961,-2.17041 0.55811,-2.635498 0.093,-1.457276 0.21704,-2.914551 0.21704,-2.32544 0.74414,-2.32544 0.062,0 0.43408,0.03101 5.02295,0.651123 14.85181,0.651123 2.79053,0 10.29395,-0.589111 4.03076,-0.310059 4.06176,-0.310059 0.62012,0 0.71314,0.09302 0.093,0.06201 0.12402,0.589111 0,0.837158 -0.062,2.32544 -0.062,1.64331 -0.062,2.325439 0,0.775147 0.18603,2.294434 0.21704,1.488281 0.21704,2.232422 z"
         style="font-style:normal;font-variant:normal;font-weight:normal;font-stretch:normal;font-size:63.50000381px;font-family:'Berlin Sans FB Demi';-inkscape-font-specification:'Berlin Sans FB Demi';fill:#ffffff;fill-opacity:1;stroke-width:0.26458335"
         id="path871" />
      <path
         d="m 353.92903,72.472465 q 0,1.333252 -0.5271,4.898926 -0.55811,3.875733 -0.99219,4.619873 -0.37207,0.589112 -1.02319,0.589112 -0.27906,0 -0.93018,-0.09302 -2.26343,-0.310058 -13.2085,-0.310058 -2.38745,0 -7.10034,-0.03101 -4.71289,-0.03101 -7.06934,-0.03101 -1.02319,0 -1.02319,-0.89917 0,-3.472657 0.37207,-10.41797 0.40308,-6.976318 0.40308,-10.448975 0,-3.534668 -0.37207,-13.177491 -0.093,-2.480469 -0.34107,-7.410401 l -0.031,-0.434082 q -0.062,-0.713135 0.77514,-0.713135 2.29444,0 6.8833,0.124024 4.61988,0.124023 6.91431,0.124023 2.26343,0 6.82129,-0.124023 4.55786,-0.124024 6.82129,-0.124024 1.6123,0 1.86035,1.209229 0.15503,0.713135 0.46509,4.340821 0.34106,3.59668 0.34106,4.371826 0,0.651123 -0.62011,0.651123 -0.18604,0 -0.65113,-0.03101 -8.24756,-0.682129 -14.8208,-0.682129 -1.64331,0 -2.01538,0.775147 -0.15503,0.37207 -0.15503,2.387451 0,2.108399 0.62012,2.790528 0.5271,0.589111 2.01538,0.589111 0.31006,0 1.20923,-0.03101 0.89917,-0.06201 1.48828,-0.06201 3.90674,0 7.90649,-0.217041 0.34107,-0.03101 1.70533,-0.155029 1.0542,-0.124023 1.67431,-0.124023 0.74414,0 0.74414,0.713135 0,-0.651124 -0.5581,4.743896 -0.24805,2.480469 -0.24805,4.960938 0,0.620117 -0.89917,0.620117 0,0 -2.79053,-0.310058 -1.76733,-0.186035 -8.06152,-0.186035 h -3.28662 q -1.27124,0 -1.48828,0.620117 -0.031,0.155029 -0.031,1.922363 0,2.356446 0.31006,3.038575 0.5271,1.178222 3.96875,1.395263 -0.062,0 4.52686,0 1.64331,0 4.86792,-0.279052 3.25561,-0.310059 4.86792,-0.310059 0.68213,0 0.68213,1.116211 z"
         style="font-style:normal;font-variant:normal;font-weight:normal;font-stretch:normal;font-size:63.50000381px;font-family:'Berlin Sans FB Demi';-inkscape-font-specification:'Berlin Sans FB Demi';fill:#ffffff;fill-opacity:1;stroke-width:0.26458335"
         id="path873" />
      <path
         d="m 394.9808,81.805229 q 0,0.217041 -0.62012,0.310059 -1.17822,0.186035 -5.92212,0.186035 -4.06177,0 -5.51904,-0.186035 -0.68213,-0.09302 -0.77515,-0.15503 -0.18603,-0.09302 -0.43408,-0.620117 -0.46509,-1.209228 -1.36426,-3.59668 -1.20923,-3.100586 -3.78271,-9.146729 -0.55811,-1.209228 -2.57349,-1.333252 0.93018,0.06201 -3.1936,0.06201 -0.46509,0 -0.46509,1.581299 0,2.108398 0.37207,6.29419 0.40308,4.185791 0.40308,6.29419 0,0.527099 -0.27906,0.620117 -0.43408,0.03101 -0.86816,0.06201 -1.82935,0.124023 -5.70508,0.124023 -4.43384,0 -5.33301,-0.186035 -0.89917,-0.186035 -0.89917,-0.961182 0,-3.410645 0.31006,-10.293946 0.34107,-6.883301 0.34107,-10.324952 0,-13.115479 -0.58912,-20.463868 l -0.031,-0.434082 q -0.031,-0.5271 0.96118,-0.713135 1.02319,-0.186035 9.48779,-0.37207 5.73609,-0.124024 9.14673,-0.124024 7.06934,0 11.53418,3.193604 5.05396,3.59668 5.05396,10.386964 0,4.526855 -1.30225,7.224365 -1.30224,2.69751 -4.80591,5.239991 -0.71313,0.496094 -0.71313,0.930176 0,-0.03101 3.78271,7.782471 3.78272,7.813477 3.78272,8.619629 z M 381.95834,53.992972 q 0,-3.782715 -2.48047,-5.239991 -1.92236,-1.116211 -6.01514,-1.116211 -2.94556,0 -3.13159,0.89917 -0.18604,1.054199 -0.18604,6.077149 0,0.713135 0.031,2.108398 0.031,1.395264 0.031,2.077393 0,0.155029 0.99218,0.310059 1.89136,0.279052 3.96875,0.279052 6.79029,0 6.79029,-5.395019 z"
         style="font-style:normal;font-variant:normal;font-weight:normal;font-stretch:normal;font-size:63.50000381px;font-family:'Berlin Sans FB Demi';-inkscape-font-specification:'Berlin Sans FB Demi';fill:#ffffff;fill-opacity:1;stroke-width:0.26458335"
         id="path875" />
    </g>
    <path
       id="path1624"
       d="m 32.194291,29.977786 -11.868794,6.852502 11.868794,6.8525 11.86893,-6.8525 -2.98505,-1.723463 z m 53.445812,0 -8.883748,5.129039 -2.985048,1.723463 11.868796,6.8525 11.868929,-6.8525 z M 58.917331,45.40625 47.048402,52.258751 58.917198,59.111252 70.786127,52.258751 Z m -14.853976,8.575964 -11.868928,6.852501 11.868794,6.8525 2.985049,1.723462 V 55.705543 Z m 29.707952,0 -2.98518,1.723462 v 13.705001 l 2.985047,-1.723462 11.868929,-6.8525 z"
       style="opacity:1;fill:#00c6ff;fill-opacity:1;stroke:none;stroke-width:3.67435312;stroke-miterlimit:4;stroke-dasharray:none;stroke-opacity:1"
       inkscape:connector-curvature="0" />
    <path
       id="path1504"
       d="m 20.325497,36.830288 v 44.561927 l 11.86893,6.8525 V 71.092792 L 47.04827,79.668757 V 96.82068 l 11.868928,6.8525 V 59.111252 L 47.04827,52.258751 V 69.410677 L 32.194427,60.834715 V 43.682788 Z m 53.44581,0 v 17.151926 l 11.868796,6.852501 V 43.682788 Z m 11.868796,34.262504 -14.853976,8.575965 14.853976,8.575958 z"
       style="opacity:1;fill:#0024a4;fill-opacity:1;stroke:none;stroke-width:3.67435312;stroke-miterlimit:4;stroke-dasharray:none;stroke-opacity:1"
       inkscape:connector-curvature="0" />
    <path
       id="path1506"
       d="m 47.04827,35.106825 -2.984915,1.723463 2.984915,-1.72333 z m -2.984915,1.723463 -11.868928,6.8525 v 17.151927 l 11.868928,-6.852501 v -1.37e-4 z m 53.445677,0 -11.868929,6.8525 V 60.834715 L 70.786127,69.410677 V 52.258751 l -11.868929,6.852501 v 44.561928 l 11.868929,-6.8525 V 79.668757 l 14.853976,-8.575965 v 17.151923 l 11.868929,-6.8525 z M 32.194427,71.092792 V 88.244715 L 47.04827,79.668757 Z"
       style="opacity:1;fill:#0068de;fill-opacity:1;stroke:none;stroke-width:3.67435312;stroke-miterlimit:4;stroke-dasharray:none;stroke-opacity:1"
       inkscape:connector-curvature="0" />
    <g
       inkscape:label="Layer 1"
       id="g945"
       transform="matrix(0.07745144,-0.08980877,0.08980877,0.07745144,-38.216426,71.868364)"
       inkscape:transform-center-x="-0.55798855"
       inkscape:transform-center-y="1.5129642">
      <g
         transform="matrix(0.95630727,0,0,0.98274056,394.96074,-139.67572)"
         id="g943"
         style="stroke-width:1.0315299">
        <rect
           inkscape:export-ydpi="96"
           inkscape:export-xdpi="96"
           ry="69.279625"
           y="1099.9095"
           x="-413.0061"
           height="152.63438"
           width="167.31024"
           id="rect935"
           style="opacity:1;fill:#ffffeb;fill-opacity:1;stroke:none;stroke-width:8.25223923;stroke-linecap:square;stroke-linejoin:miter;stroke-miterlimit:4;stroke-dasharray:none;stroke-dashoffset:0;stroke-opacity:1;paint-order:fill markers stroke" />
        <rect
           inkscape:export-ydpi="96"
           inkscape:export-xdpi="96"
           style="opacity:1;fill:#ffb570;fill-opacity:1;stroke:none;stroke-width:8.25223923;stroke-linecap:square;stroke-linejoin:miter;stroke-miterlimit:4;stroke-dasharray:none;stroke-dashoffset:0;stroke-opacity:1;paint-order:fill markers stroke"
           id="rect937"
           width="148.48326"
           height="135.45885"
           x="-403.59253"
           y="1108.4973"
           ry="61.483768" />
        <rect
           inkscape:export-ydpi="96"
           inkscape:export-xdpi="96"
           ry="46.613167"
           y="1124.8784"
           x="-385.63647"
           height="102.69646"
           width="112.57077"
           id="rect939"
           style="opacity:1;fill:#e36956;fill-opacity:1;stroke:none;stroke-width:8.25223827;stroke-linecap:square;stroke-linejoin:miter;stroke-miterlimit:4;stroke-dasharray:none;stroke-dashoffset:0;stroke-opacity:1;paint-order:fill markers stroke" />
        <rect
           inkscape:export-ydpi="96"
           inkscape:export-xdpi="96"
           style="opacity:1;fill:#57294b;fill-opacity:1;stroke:none;stroke-width:8.25223827;stroke-linecap:square;stroke-linejoin:miter;stroke-miterlimit:4;stroke-dasharray:none;stroke-dashoffset:0;stroke-opacity:1;paint-order:fill markers stroke"
           id="rect941"
           width="78.219681"
           height="71.358528"
           x="-368.46118"
           y="1140.5474"
           ry="32.389111" />
      </g>
    </g>
  </g>
</svg>
