<?xml version="1.0" encoding="UTF-8" standalone="no"?>
<!-- Created with Inkscape (http://www.inkscape.org/) -->

<svg
   xmlns:dc="http://purl.org/dc/elements/1.1/"
   xmlns:cc="http://creativecommons.org/ns#"
   xmlns:rdf="http://www.w3.org/1999/02/22-rdf-syntax-ns#"
   xmlns:svg="http://www.w3.org/2000/svg"
   xmlns="http://www.w3.org/2000/svg"
   xmlns:sodipodi="http://sodipodi.sourceforge.net/DTD/sodipodi-0.dtd"
   xmlns:inkscape="http://www.inkscape.org/namespaces/inkscape"
   width="32"
   height="32"
   viewBox="0 0 8.4666665 8.466667"
   version="1.1"
   id="svg8"
   inkscape:version="0.92.4 5da689c313, 2019-01-14"
   sodipodi:docname="dust.svg">
  <defs
     id="defs2">
    <inkscape:path-effect
       effect="powerstroke"
       id="path-effect870"
       is_visible="true"
       offset_points="0.69302987,0.16472312 | 3,0.26458335 | 5.8,0.26458335"
       sort_points="true"
       interpolator_type="CubicBezierFit"
       interpolator_beta="0.2"
       start_linecap_type="zerowidth"
       linejoin_type="extrp_arc"
       miter_limit="4"
       end_linecap_type="round" />
    <inkscape:path-effect
       effect="powerstroke"
       id="path-effect867"
       is_visible="true"
       offset_points="0.44168008,0.1163877 | 3,0.26458335 | 5.8,0.26458335"
       sort_points="true"
       interpolator_type="CubicBezierFit"
       interpolator_beta="0.2"
       start_linecap_type="zerowidth"
       linejoin_type="extrp_arc"
       miter_limit="4"
       end_linecap_type="round" />
    <inkscape:path-effect
       effect="powerstroke"
       id="path-effect864"
       is_visible="true"
       offset_points="0.63958119,0.12175266 | 3,0.20578821 | 4.7777328,0.19916825"
       sort_points="true"
       interpolator_type="CubicBezierFit"
       interpolator_beta="0.2"
       start_linecap_type="zerowidth"
       linejoin_type="extrp_arc"
       miter_limit="4"
       end_linecap_type="round" />
  </defs>
  <sodipodi:namedview
     id="base"
     pagecolor="#322947"
     bordercolor="#666666"
     borderopacity="1.0"
     inkscape:pageopacity="0"
     inkscape:pageshadow="2"
     inkscape:zoom="3.959798"
     inkscape:cx="-52.904765"
     inkscape:cy="44.698673"
     inkscape:document-units="mm"
     inkscape:current-layer="layer1"
     showgrid="false"
     units="px"
     inkscape:window-width="1920"
     inkscape:window-height="1022"
     inkscape:window-x="0"
     inkscape:window-y="30"
     inkscape:window-maximized="1" />
  <metadata
     id="metadata5">
    <rdf:RDF>
      <cc:Work
         rdf:about="">
        <dc:format>image/svg+xml</dc:format>
        <dc:type
           rdf:resource="http://purl.org/dc/dcmitype/StillImage" />
        <dc:title></dc:title>
      </cc:Work>
    </rdf:RDF>
  </metadata>
  <g
     inkscape:label="Layer 1"
     inkscape:groupmode="layer"
     id="layer1"
     transform="translate(0,-288.53332)">
    <g
       id="g878"
       transform="matrix(0.17114426,0,0,0.17114426,-21.732214,279.18276)"
       style="stroke-width:5.84302378">
      <circle
         r="17.839975"
         cy="75.271492"
         cx="146.44267"
         id="path830"
         style="opacity:1;fill:#f2a65e;fill-opacity:1;stroke:none;stroke-width:231.89503479;stroke-linecap:square;stroke-miterlimit:4;stroke-dasharray:none;stroke-opacity:1" />
      <circle
         style="opacity:1;fill:#f2a65e;fill-opacity:1;stroke:none;stroke-width:170.86999512;stroke-linecap:square;stroke-miterlimit:4;stroke-dasharray:none;stroke-opacity:1"
         id="circle832"
         cx="155.83214"
         cy="87.947266"
         r="13.145245" />
      <circle
         r="13.145245"
         cy="73.393616"
         cx="162.40477"
         id="circle834"
         style="opacity:1;fill:#f2a65e;fill-opacity:1;stroke:none;stroke-width:170.86999512;stroke-linecap:square;stroke-miterlimit:4;stroke-dasharray:none;stroke-opacity:1" />
      <path
         inkscape:connector-curvature="0"
         inkscape:original-d="m 158.65488,74.34639 c 0.7984,-0.557471 1.81753,0.100061 2.13881,0.882499 0.56362,1.372621 -0.45077,2.827139 -1.77118,3.233219 -1.93682,0.595654 -3.87326,-0.814774 -4.34968,-2.686479 -0.63756,-2.504741 1.18694,-4.942147 3.61996,-5.48289 3.078,-0.684089 6.02764,1.565142 6.62965,4.567353 0.10169,0.50715 0.13923,1.026837 0.11318,1.543379"
         inkscape:path-effect="#path-effect867"
         id="path836"
         d="m 158.65488,74.34639 c 0.21334,-0.122032 0.42937,-0.150792 0.62746,-0.130681 0.15164,0.01539 0.29886,0.05975 0.43987,0.118228 0.0432,0.01792 0.0859,0.03813 0.12774,0.06043 0.17977,0.09573 0.34513,0.229735 0.48249,0.385714 0.13756,0.156196 0.24508,0.33217 0.31145,0.510314 0.1245,0.319631 0.15666,0.640021 0.11762,0.946215 -0.0391,0.306774 -0.15012,0.602456 -0.3158,0.870969 -0.33269,0.539178 -0.88094,0.961244 -1.48937,1.139375 -0.45071,0.134148 -0.89866,0.151501 -1.32417,0.076 -0.42605,-0.0756 -0.8321,-0.244777 -1.19685,-0.486426 -0.73128,-0.48448 -1.28915,-1.255202 -1.50608,-2.126166 -0.14699,-0.586781 -0.15009,-1.16798 -0.037,-1.718391 0.11321,-0.550912 0.34333,-1.073014 0.6648,-1.539122 0.6439,-0.933605 1.64957,-1.635749 2.7956,-1.890673 1.45434,-0.323445 2.88278,0.04363 4.02485,0.854735 1.14351,0.812115 1.99255,2.064898 2.28107,3.496084 0.0802,0.387531 0.1209,0.783507 0.12044,1.179994 -1.1e-4,0.09909 -0.003,0.198182 -0.008,0.297154 a 0.26458335,0.26458335 90 0 0 0.5285,0.02665 c 0.005,-0.107645 0.008,-0.215421 0.008,-0.3232 4.9e-4,-0.430984 -0.0394,-0.862503 -0.12191,-1.28641 -0.31349,-1.571024 -1.24027,-2.943966 -2.49159,-3.835993 -1.25275,-0.893049 -2.83814,-1.308536 -4.46179,-0.947894 -1.28701,0.285824 -2.41008,1.072754 -3.12729,2.119219 -0.35909,0.523929 -0.61762,1.114617 -0.74322,1.74207 -0.12569,0.627957 -0.11778,1.290725 0.054,1.956306 0.25949,1.000784 0.90807,1.871056 1.7483,2.410831 0.42101,0.270463 0.89202,0.459195 1.38866,0.539009 0.49718,0.0799 1.01761,0.05021 1.5353,-0.113478 0.71207,-0.227911 1.33107,-0.736242 1.69484,-1.368938 0.18251,-0.317442 0.30196,-0.668172 0.33578,-1.032836 0.0339,-0.365265 -0.0185,-0.74144 -0.17581,-1.108105 -0.0942,-0.2131 -0.23466,-0.41269 -0.40346,-0.582438 -0.16902,-0.16996 -0.36862,-0.31218 -0.58357,-0.408964 -0.0502,-0.0226 -0.10127,-0.04274 -0.15302,-0.06018 -0.17104,-0.05764 -0.35015,-0.07589 -0.52436,-0.05337 -0.22833,0.02952 -0.43751,0.126875 -0.6242,0.283965 z"
         style="fill:#964253;fill-rule:nonzero;stroke:none;stroke-width:1.76022804;stroke-linecap:round;stroke-miterlimit:4;stroke-dasharray:none;stroke-opacity:1"
         transform="matrix(1.6238596,-0.66974461,0.66974461,1.6238596,-144.9551,55.241554)" />
      <path
         inkscape:connector-curvature="0"
         inkscape:original-d="m 158.62549,74.017354 c 1.00199,-0.603345 2.19671,0.201677 2.54894,1.177525 0.57036,1.580137 -0.59482,3.205201 -2.12012,3.623229 -2.11463,0.579545 -4.19169,-0.965204 -4.66224,-3.017401 -0.60298,-2.62977 1.3212,-5.157762 3.88573,-5.675764 3.13227,-0.632676 6.10649,1.667053 6.66938,4.73294 0.0934,0.508929 0.12272,1.029329 0.0884,1.545588"
         inkscape:path-effect="#path-effect870"
         id="path838"
         d="m 158.62549,74.017354 c 0.26135,-0.134192 0.5247,-0.169201 0.76991,-0.139745 0.2449,0.02942 0.47685,0.123434 0.68557,0.254618 0.16156,0.101544 0.31152,0.226783 0.44574,0.365877 0.21437,0.22214 0.37898,0.48786 0.46975,0.761014 0.12616,0.367102 0.15149,0.733069 0.0981,1.081471 -0.0534,0.348982 -0.18636,0.683399 -0.38025,0.98532 -0.38902,0.605785 -1.0187,1.073491 -1.72344,1.260791 -0.49276,0.132141 -0.9814,0.140626 -1.44454,0.04981 -0.46364,-0.09092 -0.9038,-0.281809 -1.29728,-0.550558 -0.78856,-0.538581 -1.38243,-1.384774 -1.59911,-2.344373 -0.27957,-1.233837 0.031,-2.445304 0.71846,-3.413936 0.68873,-0.970342 1.75182,-1.69056 2.96336,-1.935429 1.48346,-0.29979 2.93357,0.09286 4.0846,0.931126 1.15224,0.83914 1.99783,2.120396 2.26743,3.5829 0.0732,0.389204 0.10696,0.786029 0.10018,1.182583 -0.002,0.09911 -0.006,0.198188 -0.0124,0.297102 a 0.26458335,0.26458335 90 0 0 0.528,0.0351 c 0.007,-0.10759 0.0117,-0.21535 0.0135,-0.323153 0.007,-0.431107 -0.0262,-0.863258 -0.10252,-1.288321 -0.2933,-1.603399 -1.21627,-3.004953 -2.47493,-3.923979 -1.25986,-0.919903 -2.863,-1.360777 -4.51181,-1.027892 -1.353,0.273135 -2.53425,1.075914 -3.298,2.156509 -0.76496,1.082291 -1.11506,2.449748 -0.79164,3.845654 0.25386,1.092604 0.9338,2.044855 1.83008,2.646836 0.44892,0.301518 0.95394,0.516415 1.48919,0.616269 0.53574,0.09995 1.09974,0.08421 1.66428,-0.07343 0.82064,-0.230719 1.53608,-0.784607 1.96842,-1.490857 0.21678,-0.35411 0.36356,-0.74839 0.41582,-1.16156 0.0523,-0.413773 0.009,-0.843517 -0.14957,-1.26646 -0.12545,-0.326016 -0.33593,-0.62712 -0.59544,-0.868146 -0.16386,-0.152192 -0.35109,-0.277201 -0.55069,-0.366882 -0.25933,-0.116524 -0.53594,-0.171901 -0.80778,-0.154065 -0.27188,0.01784 -0.53295,0.108162 -0.773,0.275808 z"
         style="fill:#964253;fill-rule:nonzero;stroke:none;stroke-width:1.76022804;stroke-linecap:round;stroke-miterlimit:4;stroke-dasharray:none;stroke-opacity:1"
         transform="matrix(0.9492562,1.4779684,1.4779684,-0.9492562,-106.95739,-72.664285)" />
      <path
         inkscape:connector-curvature="0"
         inkscape:original-d="m 158.65488,74.34639 c 0.7984,-0.557471 1.81753,0.100061 2.13881,0.882499 0.56362,1.372621 -0.45077,2.827139 -1.77118,3.233219 -1.93682,0.595654 -3.87326,-0.814774 -4.34968,-2.686479 -0.63756,-2.504741 1.18694,-4.942147 3.61996,-5.48289 3.078,-0.684089 6.02764,1.565142 6.62965,4.567353 0.10169,0.50715 0.13923,1.026837 0.11318,1.543379"
         inkscape:path-effect="#path-effect864"
         id="path840"
         d="m 158.65488,74.34639 c 0.20925,-0.126704 0.42445,-0.167281 0.627,-0.152491 0.20224,0.01477 0.39699,0.0848 0.57505,0.186166 0.0998,0.0568 0.19541,0.124054 0.28547,0.198464 0.072,0.05951 0.13889,0.124259 0.19971,0.192468 0.14268,0.160008 0.25071,0.337366 0.31753,0.512933 0.12939,0.328443 0.15987,0.652593 0.12271,0.954949 -0.0389,0.31642 -0.15254,0.615456 -0.31499,0.881569 -0.34583,0.566514 -0.90828,0.982694 -1.50076,1.159849 -0.46104,0.139139 -0.91517,0.156134 -1.34115,0.08252 -0.43589,-0.07532 -0.84797,-0.246448 -1.21545,-0.487438 -0.74524,-0.488711 -1.31378,-1.268547 -1.53774,-2.150516 -0.15038,-0.591829 -0.1571,-1.182254 -0.043,-1.745665 0.1123,-0.554574 0.34245,-1.086159 0.67133,-1.56518 0.62866,-0.915657 1.63382,-1.655119 2.83619,-1.923392 1.41742,-0.315991 2.87296,0.006 4.08334,0.866433 0.62639,0.445268 1.18354,1.034599 1.60656,1.739167 0.33024,0.550043 0.57158,1.158794 0.70081,1.802956 0.0987,0.490762 0.13445,0.993997 0.10922,1.494253 a 0.19916825,0.19916825 90 0 0 0.39784,0.02006 c 0.0269,-0.532827 -0.0124,-1.068967 -0.11714,-1.592503 -0.13838,-0.690426 -0.39662,-1.341863 -0.74917,-1.929726 -0.45141,-0.752707 -1.04612,-1.382996 -1.71612,-1.860231 -1.29567,-0.922887 -2.86619,-1.276848 -4.4033,-0.936195 -1.3093,0.289951 -2.4019,1.091388 -3.08671,2.086501 -0.35901,0.521697 -0.6126,1.104207 -0.73668,1.716013 -0.12621,0.622327 -0.11862,1.275552 0.048,1.92903 0.25105,0.984193 0.88545,1.847761 1.71664,2.386482 0.41122,0.266524 0.87558,0.456613 1.37005,0.537997 0.48421,0.0797 0.99932,0.05532 1.51833,-0.106951 0.67851,-0.213701 1.30651,-0.698759 1.68345,-1.348466 0.17809,-0.306967 0.30109,-0.653864 0.33659,-1.022234 0.034,-0.353231 -0.0125,-0.727383 -0.17072,-1.099372 -0.0901,-0.206743 -0.22652,-0.40627 -0.39738,-0.579818 -0.0731,-0.07428 -0.15282,-0.144038 -0.23805,-0.207386 -0.10677,-0.07937 -0.22228,-0.145727 -0.34283,-0.196362 -0.21672,-0.09103 -0.44662,-0.130014 -0.66993,-0.106047 -0.22338,0.02397 -0.43438,0.109964 -0.62467,0.262155 z"
         style="fill:#964253;fill-rule:nonzero;stroke:none;stroke-width:1.36907399;stroke-linecap:round;stroke-miterlimit:4;stroke-dasharray:none;stroke-opacity:1"
         transform="matrix(-1.4722947,-1.7104588,1.714968,-1.4718821,246.40832,457.37631)" />
    </g>
  </g>
</svg>
