<svg height="670.00024" viewBox="0 0 354.54171 177.2709" width="1340.0001" xmlns="http://www.w3.org/2000/svg" xmlns:xlink="http://www.w3.org/1999/xlink"><linearGradient id="a" gradientUnits="userSpaceOnUse" x1="-795.926034" x2="-795.926034" xlink:href="#b" y1="9.6931" y2="58.5939"/><linearGradient id="b"><stop offset="0" stop-color="#8fde5d"/><stop offset="1" stop-color="#24b262"/></linearGradient><linearGradient id="c" gradientTransform="matrix(1.0510257 .01475014 -.01475014 1.0510257 105.49357 -2396.096)" gradientUnits="userSpaceOnUse" x1="-599.81042" x2="-745.06665" xlink:href="#b" y1="2358.2312" y2="2421.4668"/><linearGradient id="d" gradientUnits="userSpaceOnUse" x1="-807.868414" x2="-807.868414" xlink:href="#b" y1="186.9958" y2="59.7753"/><g transform="translate(810.68336 -10.054155)"><path d="m-810.68336 187.32505h354.5417v-177.270895h-354.5417z" fill="url(#d)"/><path d="m-808.35196 48.447554 347.65211-19.976099 2.41379 147.400995-345.2201 8.3766z" fill="#4f245f"/><path d="m-805.06696 16.331155 344.20658 1.9297-.89799 162.787195-344.20649-1.9296z" fill="#fff"/><path d="m-801.77596 19.477455 337.58951 1.8926-.86281 156.531695-337.5896-1.8925z" fill="#391249"/><g fill="#4b1861" transform="translate(38.347356 -2282.9718)"><path d="m799.93024 2376.3749.96041 2.8119 2.8119.9604-2.8119.9604-.96041 2.8119-.96042-2.8119-2.81189-.9604 2.81189-.9604z" transform="scale(-1 1)"/><path d="m807.47522 2389.3671.96041 2.8119 2.8119.9604-2.8119.9604-.96041 2.8119-.96041-2.8119-2.8119-.9604 2.8119-.9604z" transform="scale(-1 1)"/><path d="m826.32196 2383.7344.53796 1.575 1.57505.538-1.57505.538-.53796 1.575-.53796-1.575-1.57505-.538 1.57505-.538z" transform="scale(-1 1)"/><path d="m-820.52179 2343.9844.3906 1.1436 1.14359.3906-1.14359.3906-.3906 1.1435-.3906-1.1435-1.14359-.3906 1.14359-.3906z"/><path d="m816.45544 2376.6228.3906 1.1436 1.1436.3906-1.1436.3906-.3906 1.1436-.39059-1.1436-1.1436-.3906 1.1436-.3906z" transform="scale(-1 1)"/><path d="m829.16809 2366.8981.96041 2.8119 2.8119.9604-2.8119.9604-.96041 2.8119-.96041-2.8119-2.8119-.9604 2.8119-.9604z" transform="scale(-1 1)"/><path d="m-780.30621-2386.6615.96041 2.8119 2.8119.9604-2.8119.9605-.96041 2.8119-.96042-2.8119-2.81189-.9605 2.81189-.9604z" transform="scale(1 -1)"/><path d="m758.84576-2362.6974.96042 2.8119 2.81189.9605-2.81189.9604-.96042 2.8119-.96041-2.8119-2.8119-.9604 2.8119-.9605z" transform="scale(-1)"/><path d="m767.30511-2349.7193.96042 2.8119 2.8119.9604-2.8119.9604-.96042 2.8119-.96041-2.8119-2.8119-.9604 2.8119-.9604z" transform="scale(-1)"/><path d="m771.47919-2373.8586.53796 1.575 1.57505.538-1.57505.538-.53796 1.575-.53797-1.575-1.57504-.538 1.57504-.538z" transform="scale(-1)"/><path d="m785.1994-2355.8193.53796 1.575 1.57505.538-1.57505.538-.53796 1.575-.53796-1.575-1.57505-.538 1.57505-.538z" transform="scale(-1)"/><path d="m-787.15991-2397.8113.3906 1.1436 1.14359.3906-1.14359.3906-.3906 1.1436-.3906-1.1436-1.14359-.3906 1.14359-.3906z" transform="scale(1 -1)"/><path d="m758.83679-2379.7915.3906 1.1436 1.14359.3906-1.14359.3906-.3906 1.1436-.3906-1.1436-1.14359-.3906 1.14359-.3906z" transform="scale(-1)"/><path d="m775.65497-2362.478.3906 1.1436 1.14359.3906-1.14359.3906-.3906 1.1435-.3906-1.1435-1.14359-.3906 1.14359-.3906z" transform="scale(-1)"/><path d="m787.72003-2372.4139.96041 2.8119 2.8119.9604-2.8119.9604-.96041 2.8119-.96041-2.8119-2.8119-.9604 2.8119-.9604z" transform="scale(-1)"/><path d="m-729.91174 2348.8846.53796 1.575 1.57505.538-1.57505.5379-.53796 1.5751-.53797-1.5751-1.57504-.5379 1.57504-.538z"/><path d="m-746.59131 2340.9099.3906 1.1436 1.14359.3906-1.14359.3906-.3906 1.1436-.3906-1.1436-1.14359-.3906 1.14359-.3906z"/><path d="m746.77356 2366.5739.96041 2.8119 2.8119.9604-2.8119.9604-.96041 2.8119-.96041-2.8119-2.8119-.9604 2.8119-.9604z" transform="scale(-1 1)"/><g transform="scale(-1)"><path d="m690.58569-2352.3614.96042 2.8119 2.81189.9604-2.81189.9604-.96042 2.8119-.96041-2.8119-2.8119-.9604 2.8119-.9604z"/><path d="m705.55017-2356.7126.53796 1.575 1.57505.538-1.57505.538-.53796 1.575-.53796-1.575-1.57505-.538 1.57505-.538z"/><path d="m526.08484-2386.0072.96041 2.8119 2.8119.9604-2.8119.9604-.96041 2.8119-.96041-2.8119-2.8119-.9604 2.8119-.9604z"/><path d="m541.89331-2390.7146.53796 1.5751 1.57505.5379-1.57505.538-.53796 1.575-.53796-1.575-1.57505-.538 1.57505-.5379z"/><path d="m525.36151-2397.0818.3906 1.1436 1.14359.3906-1.14359.3906-.3906 1.1436-.3906-1.1436-1.14359-.3906 1.14359-.3906z"/></g><path d="m-547.06189-2379.5342.3906 1.1436 1.14359.3906-1.14359.3906-.3906 1.1436-.3906-1.1436-1.14359-.3906 1.14359-.3906z" transform="scale(1 -1)"/><path d="m-517.45782-2372.1278.96041 2.8119 2.8119.9604-2.8119.9604-.96041 2.8119-.96042-2.8119-2.81189-.9604 2.81189-.9604z" transform="scale(1 -1)"/><path d="m564.33411 2353.2399.96041 2.8119 2.8119.9604-2.8119.9604-.96041 2.8119-.96042-2.8119-2.81189-.9604 2.81189-.9604z" transform="scale(-1 1)"/><path d="m-587.51172 2376.5959.96041 2.8119 2.8119.9604-2.8119.9604-.96041 2.8119-.96041-2.8119-2.8119-.9604 2.8119-.9604z"/><path d="m-579.16113 2389.2939.96041 2.8118 2.8119.9605-2.8119.9604-.96041 2.8119-.96042-2.8119-2.81189-.9604 2.81189-.9605z"/><path d="m576.29773 2348.9441.53796 1.5751 1.57505.5379-1.57505.538-.53796 1.575-.53796-1.575-1.57505-.538 1.57505-.5379z" transform="scale(-1 1)"/><path d="m-575.14709 2365.1673.53796 1.575 1.57504.538-1.57504.5379-.53796 1.5751-.53797-1.5751-1.57504-.5379 1.57504-.538z"/><path d="m-561.35699 2383.2437.53796 1.575 1.57504.538-1.57504.538-.53796 1.575-.53797-1.575-1.57504-.538 1.57504-.538z"/><path d="m559.69312 2340.9341.39059 1.1436 1.1436.3906-1.1436.3906-.39059 1.1436-.3906-1.1436-1.1436-.3906 1.1436-.3906z" transform="scale(-1 1)"/><path d="m-587.79187 2359.2324.3906 1.1436 1.14359.3906-1.14359.3906-.3906 1.1436-.3906-1.1436-1.14359-.3906 1.14359-.3906z"/><path d="m-570.97095 2376.5478.3906 1.1436 1.14359.3906-1.14359.3906-.3906 1.1436-.3906-1.1436-1.14359-.3906 1.14359-.3906z"/><path d="m-558.90588 2366.612.96041 2.8119 2.8119.9604-2.8119.9604-.96041 2.8119-.96042-2.8119-2.81189-.9604 2.81189-.9604z"/><path d="m-619.91132-2349.6307.96042 2.8119 2.81189.9604-2.81189.9604-.96042 2.8119-.96041-2.8119-2.8119-.9604 2.8119-.9604z" transform="scale(1 -1)"/><path d="m-601.95618-2355.8237.53797 1.575 1.57504.538-1.57504.538-.53797 1.575-.53796-1.575-1.57505-.538 1.57505-.538z" transform="scale(1 -1)"/><path d="m598.43475-2399.938.3906 1.1436 1.1436.3906-1.1436.3906-.3906 1.1436-.39059-1.1436-1.1436-.3906 1.1436-.3906z" transform="scale(-1)"/><path d="m657.2605 2348.9068.53796 1.575 1.57505.538-1.57505.5379-.53796 1.5751-.53796-1.5751-1.57505-.5379 1.57505-.538z" transform="scale(-1 1)"/><path d="m640.86761 2340.9348.3906 1.1436 1.1436.3906-1.1436.3906-.3906 1.1436-.39059-1.1436-1.1436-.3906 1.1436-.3906z" transform="scale(-1 1)"/><path d="m524.63544-2440.1673.96041 2.8119 2.8119.9604-2.8119.9604-.96041 2.8119-.96042-2.8119-2.81189-.9604 2.81189-.9604z" transform="scale(-1)"/><path d="m-548.00214-2418.9498.96042 2.8119 2.81189.9604-2.81189.9604-.96042 2.8119-.96041-2.8119-2.8119-.9604 2.8119-.9604z" transform="scale(1 -1)"/><path d="m-539.56458-2406.1292.96042 2.8119 2.8119.9604-2.8119.9604-.96042 2.8119-.96041-2.8119-2.8119-.9604 2.8119-.9604z" transform="scale(1 -1)"/><path d="m537.10663-2443.1953.53796 1.5751 1.57505.5379-1.57505.538-.53796 1.575-.53796-1.575-1.57505-.538 1.57505-.5379z" transform="scale(-1)"/><path d="m-534.13861-2429.0913.53796 1.5751 1.57505.5379-1.57505.538-.53796 1.575-.53796-1.575-1.57505-.538 1.57505-.5379z" transform="scale(1 -1)"/><path d="m526.10413-2450.3821.39059 1.1436 1.1436.3906-1.1436.3906-.39059 1.1436-.3906-1.1436-1.1436-.3906 1.1436-.3906z" transform="scale(-1)"/><path d="m-547.06439-2434.8767.3906 1.1436 1.14359.3906-1.14359.3906-.3906 1.1436-.3906-1.1436-1.14359-.3906 1.14359-.3906z" transform="scale(1 -1)"/><path d="m-587.77997 2431.6689.96041 2.8118 2.8119.9605-2.8119.9604-.96041 2.8119-.96041-2.8119-2.8119-.9604 2.8119-.9605z"/><path d="m-579.32086 2444.6474.96041 2.8119 2.8119.9604-2.8119.9604-.96041 2.8119-.96041-2.8119-2.8119-.9604 2.8119-.9604z"/><path d="m580.70728 2403.888.53796 1.575 1.57504.538-1.57504.5379-.53796 1.5751-.53797-1.5751-1.57504-.5379 1.57504-.538z" transform="scale(-1 1)"/><path d="m-561.42651 2438.5474.53796 1.575 1.57504.538-1.57504.538-.53796 1.575-.53797-1.575-1.57504-.538 1.57504-.538z"/><path d="m559.74756 2395.4197.3906 1.1436 1.14359.3906-1.14359.3906-.3906 1.1435-.3906-1.1435-1.14359-.3906 1.14359-.3906z" transform="scale(-1 1)"/><path d="m-587.7959 2414.5701.3906 1.1435 1.14359.3906-1.14359.3906-.3906 1.1436-.3906-1.1436-1.14359-.3906 1.14359-.3906z"/><path d="m-570.97095 2431.8887.3906 1.1436 1.14359.3906-1.14359.3905-.3906 1.1436-.3906-1.1436-1.14359-.3905 1.14359-.3906z"/><path d="m604.22626-2440.7249.96041 2.8119 2.8119.9604-2.8119.9604-.96041 2.8119-.96042-2.8119-2.81189-.9604 2.81189-.9604z" transform="scale(-1)"/><path d="m616.71411-2445.4819.53796 1.575 1.57505.538-1.57505.538-.53796 1.575-.53796-1.575-1.57505-.538 1.57505-.538z" transform="scale(-1)"/><path d="m-616.07495-2429.1777.53796 1.575 1.57505.538-1.57505.538-.53796 1.575-.53796-1.575-1.57505-.538 1.57505-.538z" transform="scale(1 -1)"/><path d="m600.03461-2453.4568.3906 1.1436 1.14359.3906-1.14359.3906-.3906 1.1436-.3906-1.1436-1.14359-.3906 1.14359-.3906z" transform="scale(-1)"/><path d="m-628.01862-2435.0335.3906 1.1436 1.1436.3906-1.1436.3906-.3906 1.1436-.39059-1.1436-1.1436-.3906 1.1436-.3906z" transform="scale(1 -1)"/><path d="m-611.4176-2417.8245.3906 1.1436 1.14359.3906-1.14359.3906-.3906 1.1436-.3906-1.1436-1.14359-.3906 1.14359-.3906z" transform="scale(1 -1)"/><path d="m-599.85236-2427.7923.96042 2.8119 2.81189.9604-2.81189.9604-.96042 2.8119-.96041-2.8119-2.8119-.9604 2.8119-.9604z" transform="scale(1 -1)"/><path d="m-666.52478 2425.0778.96041 2.8119 2.8119.9604-2.8119.9604-.96041 2.8119-.96041-2.8119-2.8119-.9604 2.8119-.9604z"/><path d="m-657.62085 2418.5445.53796 1.575 1.57505.538-1.57505.5379-.53796 1.5751-.53796-1.5751-1.57505-.5379 1.57505-.538z"/><path d="m-652.44922 2430.9653.3906 1.1436 1.14359.3906-1.14359.3906-.3906 1.1436-.3906-1.1436-1.14359-.3906 1.14359-.3906z"/><path d="m-640.15747 2421.9533.96041 2.8119 2.8119.9604-2.8119.9604-.96041 2.8119-.96041-2.8119-2.8119-.9604 2.8119-.9604z"/><path d="m-821.95465 2408.9281.96041 2.8119 2.8119.9604-2.8119.9605-.96041 2.8118-.96041-2.8118-2.8119-.9605 2.8119-.9604z"/><path d="m-809.69653 2405.7483.53796 1.5751 1.57505.5379-1.57505.538-.53796 1.575-.53797-1.575-1.57504-.538 1.57504-.5379z"/><path d="m825.36859 2438.3308.53796 1.5751 1.57505.5379-1.57505.538-.53796 1.5751-.53796-1.5751-1.57505-.538 1.57505-.5379z" transform="scale(-1 1)"/><path d="m-821.18689 2397.7361.3906 1.1436 1.14359.3906-1.14359.3906-.3906 1.1436-.3906-1.1436-1.14359-.3906 1.14359-.3906z"/><path d="m829.16809 2422.2389.96041 2.8119 2.8119.9604-2.8119.9604-.96041 2.8119-.96041-2.8119-2.8119-.9604 2.8119-.9604z" transform="scale(-1 1)"/><path d="m-782.29187-2441.1263.96041 2.8119 2.8119.9604-2.8119.9604-.96041 2.8119-.96041-2.8119-2.8119-.9604 2.8119-.9604z" transform="scale(1 -1)"/><path d="m758.84357-2418.0511.96041 2.8119 2.8119.9604-2.8119.9604-.96041 2.8119-.96042-2.8119-2.81189-.9604 2.81189-.9604z" transform="scale(-1)"/><path d="m-770.32825-2445.4223.53797 1.575 1.57504.538-1.57504.5379-.53797 1.5751-.53796-1.5751-1.57505-.5379 1.57505-.538z" transform="scale(1 -1)"/><path d="m771.47882-2429.1994.53796 1.575 1.57505.538-1.57505.5379-.53796 1.5751-.53796-1.5751-1.57505-.5379 1.57505-.538z" transform="scale(-1)"/><path d="m785.19635-2411.1616.53796 1.5751 1.57505.5379-1.57505.538-.53796 1.575-.53796-1.575-1.57505-.538 1.57505-.5379z" transform="scale(-1)"/><path d="m-786.9328-2453.4324.3906 1.1436 1.14359.3906-1.14359.3906-.3906 1.1436-.3906-1.1436-1.14359-.3906 1.14359-.3906z" transform="scale(1 -1)"/><path d="m775.65491-2417.8186.3906 1.1436 1.14359.3906-1.14359.3906-.3906 1.1436-.3906-1.1436-1.14359-.3906 1.14359-.3906z" transform="scale(-1)"/><path d="m787.72003-2427.7547.96041 2.8119 2.8119.9604-2.8119.9604-.96041 2.8119-.96041-2.8119-2.8119-.9604 2.8119-.9604z" transform="scale(-1)"/><path d="m718.43524 2431.8524.96041 2.8119 2.8119.9605-2.8119.9604-.96041 2.8119-.96041-2.8119-2.8119-.9604 2.8119-.9605z" transform="scale(-1 1)"/><path d="m726.71466 2444.736.96041 2.8119 2.8119.9604-2.8119.9604-.96041 2.8119-.96041-2.8119-2.8119-.9604 2.8119-.9604z" transform="scale(-1 1)"/><path d="m730.55084 2420.5296.53796 1.575 1.57505.538-1.57505.5379-.53796 1.5751-.53796-1.5751-1.57505-.5379 1.57505-.538z" transform="scale(-1 1)"/><path d="m744.6698 2438.543.53796 1.575 1.57505.538-1.57505.538-.53796 1.575-.53796-1.575-1.57505-.538 1.57505-.538z" transform="scale(-1 1)"/><path d="m-746.62933 2396.2993.39059 1.1436 1.1436.3906-1.1436.3906-.39059 1.1436-.3906-1.1436-1.1436-.3906 1.1436-.3906z"/><path d="m718.61212 2414.6775.3906 1.1436 1.14359.3906-1.14359.3906-.3906 1.1436-.3906-1.1436-1.14359-.3906 1.14359-.3906z" transform="scale(-1 1)"/><path d="m735.20831 2431.8828.3906 1.1436 1.14359.3906-1.14359.3906-.3906 1.1436-.3906-1.1436-1.14359-.3906 1.14359-.3906z" transform="scale(-1 1)"/><path d="m746.77356 2421.9147.96041 2.8119 2.8119.9604-2.8119.9604-.96041 2.8119-.96041-2.8119-2.8119-.9604 2.8119-.9604z" transform="scale(-1 1)"/><path d="m680.12689-2422.0304.96041 2.8119 2.8119.9604-2.8119.9605-.96041 2.8119-.96041-2.8119-2.8119-.9605 2.8119-.9604z" transform="scale(-1)"/><path d="m690.60852-2429.9746.53796 1.5751 1.57505.5379-1.57505.538-.53796 1.575-.53796-1.575-1.57505-.538 1.57505-.5379z" transform="scale(-1)"/><path d="m-705.7583-2453.4314.3906 1.1436 1.14359.3906-1.14359.3906-.3906 1.1436-.3906-1.1436-1.14359-.3906 1.14359-.3906z" transform="scale(1 -1)"/><path d="m694.17676-2418.742.3906 1.1436 1.14359.3906-1.14359.3906-.3906 1.1436-.3906-1.1436-1.14359-.3906 1.14359-.3906z" transform="scale(-1)"/><path d="m706.46838-2427.7542.96042 2.8119 2.81189.9604-2.81189.9604-.96042 2.8119-.96041-2.8119-2.8119-.9604 2.8119-.9604z" transform="scale(-1)"/><path d="m-510.66144 2330.0827.96041 2.8119 2.8119.9604-2.8119.9604-.96041 2.8119-.96041-2.8119-2.8119-.9604 2.8119-.9604z"/><path d="m525.24823-2333.3038.96041 2.8119 2.8119.9604-2.8119.9604-.96041 2.8119-.96041-2.8119-2.8119-.9604 2.8119-.9604z" transform="scale(-1)"/><path d="m541.30792-2336.4736.53796 1.575 1.57505.538-1.57505.538-.53796 1.575-.53796-1.575-1.57505-.538 1.57505-.538z" transform="scale(-1)"/><path d="m521.18878-2342.5962.3906 1.1436 1.14359.3906-1.14359.3906-.3906 1.1436-.3906-1.1436-1.14359-.3906 1.14359-.3906z" transform="scale(-1)"/><path d="m-577.1944 2331.1447.96042 2.8119 2.81189.9604-2.81189.9604-.96042 2.8119-.96041-2.8119-2.8119-.9604 2.8119-.9604z"/><path d="m-559.31952 2326.1321.53796 1.5751 1.57505.5379-1.57505.538-.53796 1.575-.53796-1.575-1.57505-.538 1.57505-.5379z"/><path d="m728.888 2334.0094.96041 2.8119 2.8119.9604-2.8119.9605-.96041 2.8118-.96041-2.8118-2.8119-.9605 2.8119-.9604z" transform="scale(-1 1)"/><path d="m-689.49799-2334.8269.53797 1.5751 1.57504.5379-1.57504.538-.53797 1.575-.53796-1.575-1.57504-.538 1.57504-.5379z" transform="scale(1 -1)"/><path d="m-708.08698-2342.572.3906 1.1436 1.1436.3906-1.1436.3906-.3906 1.1436-.39059-1.1436-1.1436-.3906 1.1436-.3906z" transform="scale(1 -1)"/><path d="m637.21039 2324.0343.96041 2.8119 2.8119.9604-2.8119.9605-.96041 2.8119-.96041-2.8119-2.8119-.9605 2.8119-.9604z" transform="scale(-1 1)"/><path d="m661.09796 2328.9806.96041 2.8119 2.8119.9604-2.8119.9604-.96041 2.8119-.96041-2.8119-2.8119-.9604 2.8119-.9604z" transform="scale(-1 1)"/><path d="m671.24786 2341.8377.53797 1.575 1.57504.538-1.57504.5379-.53797 1.5751-.53796-1.5751-1.57504-.5379 1.57504-.538z" transform="scale(-1 1)"/><path d="m-594.82837-2343.222.96041 2.8119 2.8119.9604-2.8119.9604-.96041 2.8119-.96041-2.8119-2.8119-.9604 2.8119-.9604z" transform="scale(1 -1)"/><path d="m-610.38733-2333.0117.53796 1.5751 1.57505.5379-1.57505.538-.53796 1.575-.53796-1.575-1.57505-.538 1.57505-.5379z" transform="scale(1 -1)"/><path d="m-625.19269-2335.8245.3906 1.1436 1.14359.3906-1.14359.3906-.3906 1.1436-.3906-1.1436-1.14359-.3906 1.14359-.3906z" transform="scale(1 -1)"/><path d="m595.84888-2329.0813.3906 1.1436 1.14359.3906-1.14359.3906-.3906 1.1436-.3906-1.1436-1.14359-.3906 1.14359-.3906z" transform="scale(-1)"/></g><path d="m-501.75094 25.270255a46.023811 46.023811 0 0 0 -46.02405 46.023499 46.023811 46.023811 0 0 0 46.02405 46.023496 46.023811 46.023811 0 0 0 37.13986-18.924395l.29662-53.771901a46.023811 46.023811 0 0 0 -37.43648-19.350699z" fill="#812ba7" opacity=".123"/><path d="m-505.82991 126.35493a38.880061 38.880061 0 0 1 -38.88007 38.8801 38.880061 38.880061 0 0 1 -38.88005-38.8801 38.880061 38.880061 0 0 1 38.88005-38.88 38.880061 38.880061 0 0 1 38.88007 38.88z" fill="#812ba7" opacity=".123"/><path d="m-702.90855 77.123554 142.37893 1.998101-.7337 52.279795-142.37893-1.9981z" opacity=".295"/><path d="m-699.19189 110.67447a28.964364 28.964364 0 0 1 -28.96438 28.9644 28.964364 28.964364 0 0 1 -28.96435-28.9644 28.964364 28.964364 0 0 1 28.96435-28.964296 28.964364 28.964364 0 0 1 28.96438 28.964296z" fill="#812ba7" opacity=".123"/><path d="m-704.34558 74.091754 142.37893 1.9982-.7337 52.279796-142.37893-1.9982z" fill="url(#c)"/><g stroke-width=".655765" transform="matrix(1.4729746 .39468235 -.39468235 1.4729746 739.80322 -3233.2021)"><path d="m-363.05056 2360.3996c-3.33404 0-6.07721 2.7431-6.07721 6.0771v1.5074c0 3.3351 2.74514 6.0753 6.07721 6.0753h1.50727c3.33311 0 6.07536-2.7422 6.07536-6.0753v-1.5074c0-3.332-2.74027-6.0771-6.07536-6.0771z" fill="#fff"/><path d="m-363.05056 2361.2421c-2.87202 0-5.2347 2.3626-5.2347 5.2346v1.5074c0 2.8729 2.36442 5.2328 5.2347 5.2328h1.50727c2.87111 0 5.23285-2.3617 5.23285-5.2328v-1.5074c0-2.8702-2.36-5.2346-5.23285-5.2346z" fill="#fcb479"/><path d="m-363.0918 2362.8789c-1.94812 0-3.55664 1.6084-3.55664 3.5566v1.5899c0 1.9482 1.60978 3.5547 3.55664 3.5547h1.58985c1.94686 0 3.55468-1.6078 3.55468-3.5547v-1.5899c0-1.9469-1.60656-3.5566-3.55468-3.5566z" fill="#dd6c56"/><path d="m-363.09234 2364.1428h1.59026c1.26967 0 2.29183 1.0221 2.29183 2.2918v1.5903c0 1.2697-1.02216 2.2918-2.29183 2.2918h-1.59026c-1.26967 0-2.29183-1.0221-2.29183-2.2918v-1.5903c0-1.2697 1.02216-2.2918 2.29183-2.2918z" fill="#56294e"/></g><path d="m-657.64042 149.16125a.83202609.83202609 0 0 0 -.245.027l-.94247.2544c-3.63168.9749-6.17349 4.2823-6.17822 8.0433 0 4.1307 3.06021 7.619 7.07786 8.2344l.0145.08.12482 1.2647a.83202609.83202609 0 0 0 .91185.7459l2.89403-.2948.61928.844a.83202609.83202609 0 0 0 .8856.3119l.94247-.2523c2.37759-.6375 4.22667-2.3051 5.26254-4.4129 1.26224.7771 2.73126 1.2663 4.34622 1.0296.73477-.1076 1.42461-.3559 2.08634-.6381l3.8989.1716a.83202609.83202609 0 0 0 .0157 0c1.68395.045 3.41597-.2936 4.56495-1.3635 1.30205 1.0005 2.91584 1.6334 4.69569 1.4128.0906-.014.0853-.026.15751-.042l.7173.9109a.83202609.83202609 0 0 0 1.14688.1541l1.89244-1.3951c.54979.2194 1.10301.4577 1.7495.4299.27876-.014.28114-.059.41054-.1101a.83202609.83202609 0 0 0 .25065.028l4.31653-.186a.83202609.83202609 0 0 0 .62612-.3297c.1595.044.18065.1113.39098.1224.6947.036 1.33001-.13 1.95194-.3125 1.29613.7656 2.76081.9012 4.0932.681.48634-.08.96874-.2751 1.4426-.4879.41081.1812.82529.3691 1.2918.4052.95783.075 1.88455-.1326 2.69485-.5277l1.01565-.495a.83202609.83202609 0 0 0 .44733-.9317l-.56294-2.4759a.83202609.83202609 0 0 0 .48793-.6912l.32252-3.869a.83202609.83202609 0 0 0 -.76499-.8984l-.87547-.068.0644-.7544a.83202609.83202609 0 0 0 -.76512-.8984l-4.28328-.3315a.83202609.83202609 0 0 0 -.89308.7613l-.0644.7614-.0407-.014a.83202609.83202609 0 0 0 -.64845.2387c-.18511-.028-.237-.085-.54507-.036-.44431.075-.85997.2675-1.27577.4508-.73201-.4835-1.57293-.8642-2.55955-.916-.65161-.035-1.21427.1523-1.76906.33a.83202609.83202609 0 0 0 -.24817-.027l-4.2507.1829a.83202609.83202609 0 0 0 -.0145 0l-.0605.014-2.05101.084c-1.37652-1.3562-3.30482-2.1255-5.36252-1.8704-1.2445.1543-2.30848.7049-3.21602 1.4165-1.20219-.9172-2.62903-1.4148-3.84857-1.4481l-4.90928-.2172a.83202609.83202609 0 0 0 -.86548.7525c-.81924-.1807-1.66516-.2876-2.54667-.1584-1.65071.242-2.95945 1.1328-3.9709 2.2496-1.23818-1.4631-2.8567-2.6218-4.84332-2.9585l-.0145-.086-.12875-1.2668a.83202609.83202609 0 0 0 -.91159-.7458l-2.89613.2968-.62796-.8498a.83202609.83202609 0 0 0 -.63992-.3364zm-.0262.8313.90976 1.2299 3.36735-.3432.20206 2.0159h.0145c2.37746.1607 4.34097 1.5002 5.60057 3.3498.89413-1.3149 2.32636-2.304 4.08873-2.5622 1.09342-.1603 2.18041.025 3.2088.3736l.0446-.9592 4.92374.2173c1.21875.035 2.82649.5232 3.90243 1.597.86852-.826 1.99229-1.4117 3.28643-1.5721 1.97981-.2457 3.87749.496 5.06076 1.8874l2.29234-.097.0644-.014 4.25176-.1825v.066c.60656-.2428 1.25028-.404 1.9354-.3682.97124.051 1.81202.4416 2.51422.9876.47399-.2617.99002-.4471 1.50238-.5316.32922-.054.64413.08.97374.083l.0197-.2772.86666.067.13256-1.5859 4.28264.3315-.13137 1.5876 1.70889.1338-.32239 3.8692-.69706-.054.78969 3.4744-1.01526.4952c-.68865.3353-1.46915.5071-2.26671.4455-.45823-.036-.93117-.2016-1.36694-.4355-.48779.2699-1.02669.4371-1.56781.5264-1.1863.196-2.44314.075-3.54104-.5769l-.23147-.1369c-.65187.2433-1.35577.3739-2.09501.335-.41396-.021-.73818-.2623-1.12101-.3807l.0263.5878-4.3168.1862-.0145-.1126c-.22386.048-.42736.1852-.65266.1947-.68131.028-1.32977-.1703-1.91858-.4806l-2.18053 1.6073-1.05479-1.3369c-.19719.044-.37127.1322-.57726.1578-1.81991.2254-3.52145-.4419-4.71039-1.6212-.79954 1.1787-2.60066 1.6142-4.42595 1.5669l-4.02319-.1774c-.67827.3087-1.39215.5459-2.12048.6527-1.74005.255-3.36933-.3069-4.58678-1.3338-.81319 2.2731-2.68828 4.0848-5.11593 4.736l-.94233.2529-.89965-1.2284-3.36736.3421-.20271-2.0145h-.0145c-3.92437-.2652-7.00061-3.5502-7.00061-7.4837.0145-3.3875 2.29181-6.364 5.56392-7.2416zm-.59631 1.6572-.7969.2931.0998 1.3188c-.28614.1571-.55335.3403-.79954.5474l-1.23306-.5113-.54061.6441.74252 1.0691c-.17092.2812-.31227.5809-.4221.8936l-1.30216.158-.13847.8216 1.17446.5556c0 .1649.0145.3314.0236.4987.0157.1675.0407.3319.0748.493l-1.0418.7695.29979.779 1.30888-.091c.17013.2858.36823.5526.59144.7961l-.51538 1.1898.65792.5284 1.10721-.7357c.28245.1561.58186.2849.89387.3847l.16513 1.313.83987.1354.59893-1.2115c.15608 0 .31345-.014.47164-.03h.00053l2.29101-.2205-.32619-3.255-2.29194.2197.0998 1.0131h-.00053c-1.44195.1381-2.72455-.8932-2.8663-2.3044-.14134-1.4105.91227-2.6658 2.35381-2.8043l2.29143-.2203-.22505-2.2427-2.29116.22c-.15868.014-.31477.035-.46833.061zm4.97774 2.7224-.59958 1.2115c-.15596 0-.31282.014-.47112.03l-2.2918.2201.22491 2.2423 2.29141-.21999a2.6228362 2.5668514 0 0 1 2.86708 2.30339 2.6228362 2.5668514 0 0 1 -2.35459 2.8051l-2.29129.2212.22492 2.2422 2.29193-.22c.1583-.014.31451-.035.46756-.061l.82936 1.0747.79652-.2927-.0986-1.319c.28586-.1568.55361-.3405.79954-.5473l1.23306.511.54021-.6437-.74226-1.0694c.17053-.2813.31254-.5807.42263-.8936l1.30151-.1578.13861-.8218-1.17448-.5558c.0145-.1644-.0145-.3311-.0236-.4984-.0158-.1674-.0407-.332-.0762-.4931l1.04165-.7694-.29979-.7794-1.30834.093c-.16999-.2858-.36851-.5527-.59184-.7962l.51538-1.1898-.65766-.5283-1.10812.7358c-.28259-.1561-.58133-.2852-.89321-.3848l-.16553-1.3131zm14.3981.2122-.2722 5.7864-.33184-2.1189-2.20418.323.27351 1.7461c-.35314.2054-.71441.3573-.98017.3961-1.00804.1477-1.86735-.4933-2.02998-1.5324-.15962-1.0179.45376-1.8748 1.45036-2.0209.6428-.093 1.44471.1064 2.04061.5114l1.18394-1.9153c-.94156-.5856-2.32991-.8423-3.53735-.6653-2.53603.3717-4.12091 2.2588-3.77383 4.4762.34906 2.2284 2.37627 3.5966 4.81312 3.2395 1.01735-.149 2.24596-.6818 3.04234-1.2976l-.0302.6595 3.40152.1494c2.25739.099 3.88036-.9157 4.38208-2.6408.55111 1.8141 2.39862 2.9652 4.51399 2.703.46664-.058.90121-.1808 1.29822-.3546l.7738.9824 1.16055-.8551-.72781-.9241c.49344-.4704.84971-1.0536 1.03101-1.7021l.0341.7714c.0644 1.3639.92973 2.1834 2.27249 2.1255.95127-.041 1.65136-.4284 2.03011-1.2149l.0486 1.0718 1.46612-.063-.0986-2.157c.36995 1.0922 1.36642 1.8158 2.75884 1.889 1.05125.056 1.94432-.2666 2.57229-.863l-.73858-.8311c-.44864.3999-1.03181.597-1.64716.5648-.87244-.044-1.49293-.5779-1.63703-1.4102l4.41794.2322c.0145-.1187.025-.233.0315-.3461.85536 1.0492 3.0468.3923 3.20602 1.2946.0683.3737-.28114.5961-.77799.6782-.64058.1064-1.50317-.015-2.12312-.3746l-.32475 1.0539c.71073.4213 1.68722.5457 2.58161.398.79257-.1316 1.47032-.4747 1.81294-1.0016.25619.5517.8052.8439 1.46258.8951.52485.041 1.05099-.069 1.5313-.3045l-.24633-1.0845c-.33658.1261-.62324.1904-.86891.1714-.3907-.031-.6097-.2318-.56398-.7828l.21637-2.6032 1.70851.1332.0841-1.0259-1.70839-.1332.13269-1.5873-1.4405-.1125-.13138 1.5876-.84867-.067-.0157.2386c-.61955-.2221-1.37101-.2853-2.0653-.1707-.82792.1368-1.53472.5248-1.81979 1.1425-.35944-.93729-1.17841-1.5108-2.50345-1.5803-1.60302-.084-2.82623.81061-3.13575 2.265l-.0853-1.90039-1.466.062.1314 2.858c.0446.93069-.48387 1.66919-1.42319 1.7204-.80584.035-1.3094-.4319-1.3467-1.2438l-.14753-3.21481-1.46639.063.025.54141c-.62875-1.6828-2.41162-2.7153-4.44067-2.4639-1.71403.2123-3.01713 1.2641-3.48389 2.6616-.44365-1.5747-1.88126-2.5857-3.94343-2.6763zm11.38809 1.4359c1.3178-.037 2.49123.8832 2.6678 2.2133.0933.6951-.10908 1.3524-.50461 1.8632l-.59184-.751-1.16067.8555.58619.7441c-.18813.068-.38545.12-.5929.146-1.43341.1776-2.79207-.7897-2.98007-2.2083-.18826-1.4185.86654-2.6638 2.31099-2.8429.088-.014.17709-.017.26511-.02zm-8.88372.6265.85038.037c1.00711.045 1.63257.8096 1.58002 1.9352-.0526 1.1148-.69023 1.8028-1.63033 1.7615l-.97374-.043zm21.57293.5101h.15844c.90595.047 1.46875.6193 1.45443 1.4758l-3.13221-.1644c.17106-.7945.73898-1.2919 1.51934-1.314zm6.58167.3085.79599.062-.16777 2.0218c-.85721-1.1212-3.13338-.4798-3.27973-1.3087-.0631-.3524.24291-.5565.70666-.6332.50801-.083 1.19313 0 1.82582.2368z" fill="#fff"/><g fill="#fff" stroke-width=".846247" transform="matrix(1.181638 -.01093734 .01093734 1.181638 134.19461 -2721.0033)"><path d="m-646.42329 2372.1834-8.82177.5129.0747 1.2913c-.97623-.3122-1.98068-.5039-3.00066-.5535-1.78699-.087-3.47747.2765-4.83717 1.2384-.54935.3886-.95865.9454-1.33496 1.5151-1.36279-.9915-3.01313-1.5567-4.82937-1.5172l.13759-.3058-9.19614-.5987-.1137-.01-9.3083-.6081.46522 1.5894-5.33977.1885c-3.08566-1.9012-6.84528-1.5841-9.38463-.6874l-.0939-1.9566-2.25865.1101-6.38606.3059-8.98221.432.86347 18.0096 8.64472-.4143 8.98014-.4315-.082-1.7311 7.73969.3789.0395 1.0909 8.84878-.312-.23937-6.8372h.039l1.66051 5.6559 7.57093.4944.6693-1.5011c.19856.2181.30375.5094.5317.7004 1.55635 1.3044 3.66029 1.8634 5.90107 1.7228 2.05869-.1285 3.8127-.9995 5.224-2.2347 1.34772.6203 2.77869 1.0687 4.32159 1.1438 1.81699.088 3.51599-.2559 4.9-1.1932.16726-.1132.25649-.3151.4102-.4476.31966.5191.64787 1.04 1.12257 1.4212 1.2398.9952 2.85587 1.3918 4.50021 1.2835.00067 0 .00089.0001.002 0 1.44597-.086 2.79815-.3578 4.06609-1.1995l.70047-.4646c.77159.2547 1.55457.5 2.41598.5551 1.37447.088 2.67359-.1484 3.86777-.5966l-.0825 1.1521 8.83318.6319.48652-6.8253c.12258-.015.19016-.057.62621.039l2.55721.567.62774-8.7699-2.25659-.1609c-.33935-.024-.64051.1473-.97356.1806l.004-.057-8.83321-.6277-.0374.5161c-1.16262-.7491-2.46663-1.3001-3.95398-1.3952-2.00089-.1281-3.86934.4981-5.35378 1.5992l-.96162.055zm-2.12471 2.3878.17187 2.9431 2.46273-.1428.11785 2.0271c.71835-2.4506 2.84808-3.8534 5.71261-3.67 3.67409.2348 5.6683 2.8729 5.18921 6.7439l-6.84765-.4379c.23568.846.824 1.3083 1.67038 1.3625.73097.047 1.50251-.2331 2.19585-.8068l2.10912 2.3563c-1.19434 1.1598-2.85426 1.7495-4.89327 1.6184-3.59717-.2299-5.59731-2.4814-5.38962-5.7324.0156-.2469.0467-.4841.0857-.7159l-2.25451.1307.1843 3.1752c.0325.5583.38041.8856.8988.8355.25014-.015.66672-.1543 1.06184-.3318l.90347 2.9196c-.66929.4443-1.84875.7634-2.96484.8287-2.40421.1589-4.04343-1.1555-4.17098-3.3495l-.22328-3.8294-1.44294.084-.12982-2.241-.90917 1.525c-1.52201-.8459-2.69671-1.29-3.50533-1.3282-.36579-.018-.60423.1063-.61427.3182-.0478.9817 5.43942.8617 5.2671 4.4041-.10578 2.1757-2.04166 3.4894-4.9488 3.3486-1.94455-.094-3.65325-.6782-5.06772-1.7507l1.43983-2.6315c1.36332.9348 2.65185 1.4392 3.82624 1.4974.4043.021.65925-.083.66929-.2756.0449-.9241-5.32649-.7799-5.1534-4.3419.10767-2.2138 2.00502-3.5504 4.81588-3.4134 1.67502.081 3.29011.6045 4.82577 1.5666l-.34113.5717 1.10959-.063-.1703-2.9446zm-55.60832.077.64644 13.4964-4.46645.2145-.23366-4.8709-4.17774.1995.23313 4.8709-4.46643.2134-.64593-13.4955 4.46643-.2144.25029 5.2371 4.17774-.2005-.25027-5.2359zm19.5808.9664 4.44309.2901 1.24355 6.707 2.14183-6.4857 4.32781.2824-1.00315 2.2514c.92162-1.0354 2.30503-1.674 4.02042-1.7821 3.67435-.2307 5.98576 2.1347 5.99925 6.0351l-6.84872.431c.34055.8092.98231 1.194 1.82874 1.1397.73103-.046 1.46043-.4193 2.0759-1.0758l2.39055 2.0701c-1.03845 1.3011-2.61156 2.0961-4.65076 2.2235-3.59743.2257-5.86567-1.756-6.06986-5.0071-.0292-.4647-.009-.9061.0488-1.3271l-2.36354 5.3092-4.42336-.2892-2.65847-9.0591.11476 3.282c-1.95578-.2206-3.20245.5176-3.15383 1.9046l.17656 5.0272-4.33407.1522-.36969-10.537 4.33458-.1525.054 1.5411c.66602-1.0795 1.70511-1.7375 2.99755-1.8319zm-12.97045.1402c.2038 0 .40319.02.59815.02 3.04228.1393 4.78625 1.6458 4.67259 4.1298l-.31101 6.8165-4.25566-.1952.0519-1.1357c-.65494.8194-1.67877 1.2552-3.02661 1.1939-2.23363-.1023-3.46301-1.4721-3.37138-3.4743.0952-2.0796 1.5509-3.1121 4.22916-3.0287l2.40714.1101c.0142-.7327-.52462-1.1813-1.58365-1.2295-.78947-.036-2.01393.1391-3.22808.5275l-.83024-2.9326c1.59314-.501 3.22085-.7738 4.64765-.7929zm63.6933 1.0114 4.32573.3085-.10954 1.5385c.80881-1.0441 1.96947-1.5981 3.33452-1.5016l-.27936 3.9025c-1.92131-.427-3.23991.1752-3.33867 1.5597l-.35774 5.0179-4.32575-.3094zm-6.51377 1.8485c-.674.028-1.12743.5948-1.34274 1.414l2.61539.1676c.113-.862-.38432-1.5307-1.13454-1.5789v-.0006c-.0468 0-.0931 0-.13811 0zm-28.67726 1.145c-.0455 0-.0917 0-.13864 0v-.0006c-.7503.047-1.17382.6923-1.29132 1.5879l2.61641-.164c.003-.815-.50473-1.3934-1.18645-1.4243zm-29.10147 2.3655c-.59688-.027-.93817.2463-.96369.8048-.0264.5778.30442.9393.9206.9684.55841.025 1.1302-.238 1.50058-.742l.0441-.9632z"/><path d="m-725.96447 2364.1518v35.019l36.87424-.0005a.70121591.70121591 0 1 0 0-1.402h-35.47176v-32.214h105.60442v32.214h-35.47224a.70121591.70121591 0 1 0 0 1.402l36.87474.0005v-35.019z"/><g stroke-width=".223903"><path d="m-680.03027 2399.3659c-.32138.1438-.65122.2284-.89648.2284-.86265 0-1.51386-.6597-1.51386-1.5646 0-.888.64276-1.5562 1.49695-1.5562.51589 0 1.10791.2538 1.51386.6428l.99796-1.2094c-.62584-.5497-1.59843-.8965-2.50337-.8965-1.91135 0-3.30681 1.2855-3.30681 3.0193 0 1.7422 1.35317 3.0362 3.18841 3.0362.84573 0 1.89444-.3214 2.5372-.7612v-2.385h-1.51386z"/><path d="m-675.46134 2396.3213c-.71887 0-1.46311.1691-2.21581.4736l.42286 1.1333c.50744-.2199 1.02334-.3298 1.387-.3298.52436 0 .79499.2283.79499.6089v.017h-1.12482c-1.15866.017-1.77604.5074-1.77604 1.3955 0 .8626.5751 1.4462 1.55615 1.4462.60892 0 1.06562-.2115 1.34471-.5836v.5074h1.67455v-2.9854c0-1.0656-.76961-1.683-2.06359-1.683zm-.38903 3.6282c-.32984 0-.5159-.1692-.5159-.4567s.1776-.4313.5159-.4313h.77807v.4144c-.12686.2875-.43132.4736-.77807.4736z"/><path d="m-666.28157 2396.3213c-.71887 0-1.26014.3552-1.55615.998-.24526-.6259-.79499-.998-1.51386-.998-.62584 0-1.11637.2706-1.42929.7696v-.7019h-1.70838v4.6007h1.70838v-2.275c0-.5243.2791-.888.72733-.8965.38058 0 .6343.2876.6343.7443v2.4272h1.70838v-2.275c0-.5243.27909-.888.71887-.8965.38058 0 .6343.2876.6343.7443v2.4272h1.70838v-2.9177c0-1.0657-.65967-1.7507-1.63226-1.7507z"/><path d="m-661.67907 2396.3298c-1.45466 0-2.42725.9387-2.42725 2.3765 0 1.4123.93876 2.3426 2.478 2.3426.8711 0 1.5646-.296 2.04667-.8288l-.88802-.8711c-.30446.2791-.65121.4398-1.01488.4398-.43978 0-.76116-.2453-.89648-.685h3.09538c.10149-1.6915-.77807-2.774-2.39342-2.774zm.71042 1.9367h-1.44621c.0846-.4652.34675-.7781.75271-.7781.41441 0 .70195.3214.6935.7781z"/></g></g><g stroke-width=".417606" transform="matrix(2.3130051 .61976786 -.61976786 2.3130051 1803.3789 -5179.5802)"><path d="m-363.05056 2360.3996c-3.33404 0-6.07721 2.7431-6.07721 6.0771v1.5074c0 3.3351 2.74514 6.0753 6.07721 6.0753h1.50727c3.33311 0 6.07536-2.7422 6.07536-6.0753v-1.5074c0-3.332-2.74027-6.0771-6.07536-6.0771z" fill="#fff"/><path d="m-363.05056 2361.2421c-2.87202 0-5.2347 2.3626-5.2347 5.2346v1.5074c0 2.8729 2.36442 5.2328 5.2347 5.2328h1.50727c2.87111 0 5.23285-2.3617 5.23285-5.2328v-1.5074c0-2.8702-2.36-5.2346-5.23285-5.2346z" fill="#fcb479"/><path d="m-363.0918 2362.8789c-1.94812 0-3.55664 1.6084-3.55664 3.5566v1.5899c0 1.9482 1.60978 3.5547 3.55664 3.5547h1.58985c1.94686 0 3.55468-1.6078 3.55468-3.5547v-1.5899c0-1.9469-1.60656-3.5566-3.55468-3.5566z" fill="#dd6c56"/><path d="m-363.09234 2364.1428h1.59026c1.26967 0 2.29183 1.0221 2.29183 2.2918v1.5903c0 1.2697-1.02216 2.2918-2.29183 2.2918h-1.59026c-1.26967 0-2.29183-1.0221-2.29183-2.2918v-1.5903c0-1.2697 1.02216-2.2918 2.29183-2.2918z" fill="#56294e"/></g><g stroke-width=".655765" transform="matrix(-1.4729746 .39468235 .39468235 1.4729746 -2012.6696 -3217.5217)"><path d="m-363.05056 2360.3996c-3.33404 0-6.07721 2.7431-6.07721 6.0771v1.5074c0 3.3351 2.74514 6.0753 6.07721 6.0753h1.50727c3.33311 0 6.07536-2.7422 6.07536-6.0753v-1.5074c0-3.332-2.74027-6.0771-6.07536-6.0771z" fill="#fff"/><path d="m-363.05056 2361.2421c-2.87202 0-5.2347 2.3626-5.2347 5.2346v1.5074c0 2.8729 2.36442 5.2328 5.2347 5.2328h1.50727c2.87111 0 5.23285-2.3617 5.23285-5.2328v-1.5074c0-2.8702-2.36-5.2346-5.23285-5.2346z" fill="#fcb479"/><path d="m-363.0918 2362.8789c-1.94812 0-3.55664 1.6084-3.55664 3.5566v1.5899c0 1.9482 1.60978 3.5547 3.55664 3.5547h1.58985c1.94686 0 3.55468-1.6078 3.55468-3.5547v-1.5899c0-1.9469-1.60656-3.5566-3.55468-3.5566z" fill="#dd6c56"/><path d="m-363.09234 2364.1428h1.59026c1.26967 0 2.29183 1.0221 2.29183 2.2918v1.5903c0 1.2697-1.02216 2.2918-2.29183 2.2918h-1.59026c-1.26967 0-2.29183-1.0221-2.29183-2.2918v-1.5903c0-1.2697 1.02216-2.2918 2.29183-2.2918z" fill="#56294e"/></g><g stroke-width=".681251"><g transform="matrix(-1.4178709 .37991735 -.37991735 -1.4178709 -160.58843 3569.9552)"><path d="m-1494.9453 9212.5684.1406-.2715c-3.411 5.927-6.89 11.8461-10.291 17.834-.02.036-.04.073-.059.1093-2.8417 5.5057-.3694 12.3601 5.2266 14.92 5.2913 2.6468 11.8431.5567 14.5859-4.6817.026-.043.05-.087.074-.1308.094-.2041.4962-.5793.7012-.6719.01.012.021.025.031.037.2204.189.5814.6957 1.1368 1.5351.5247.793 1.3452 1.8958 2.6504 2.7832 4.8443 3.7618 11.9443 2.7387 15.5527-2.1777 3.0526-3.9129 2.945-9.2912.2285-13.1992l.1406.209c-3.5151-6.0465-6.9946-12.1463-10.5644-18.211-.05-.083-.1043-.164-.1621-.2421-4.3056-6.6319-15.4985-6.0452-19.3926 2.1582z" fill="#639ae2" transform="matrix(.26458333 0 0 .26458333 -.00001 -95.250011)"/><path d="m-392.90313 2341.2701c-.81914.027-1.55498.5759-1.88604 1.3114-.90496 1.5725-1.82426 3.1373-2.72016 4.7147-.52349 1.0142-.0362 2.3747 1.00322 2.8391.97392.4979 2.27841.08 2.78433-.8862.2472-.5343.98201-.9284 1.47228-.4483.3753.321.51275.8433.94532 1.1141.89263.713 2.32322.5049 2.98933-.4158.57232-.7233.5552-1.7876.0368-2.5334-.93242-1.6039-1.85172-3.2172-2.79232-4.8152-.41576-.5756-1.12244-.9157-1.83281-.8804z" fill="#4f5bab"/></g><g transform="matrix(1.4678879 0 0 1.4678879 79.418846 -3346.7757)"><path d="m-398.05451 2354.7417h11.17854c.47937 0 .86529.3859.86529.8653s-.38592.8653-.86529.8653h-11.17854c-.47937 0-.86529-.3859-.86529-.8653s.38592-.8653.86529-.8653z" fill="#165632"/><path d="m-398.05451 2354.7417h2.57246c.47937 0 .86529.3859.86529.8653s-.38592.8653-.86529.8653h-2.57246c-.47937 0-.86529-.3859-.86529-.8653s.38592-.8653.86529-.8653z" fill="#36cc89"/></g><g transform="matrix(-1.2712283 .73394399 .73394399 1.2712283 -2940.433561 -2549.08604)"><path d="m-1494.9453 9212.5684.1406-.2715c-3.411 5.927-6.89 11.8461-10.291 17.834-.02.036-.04.073-.059.1093-2.8417 5.5057-.3694 12.3601 5.2266 14.92 5.2913 2.6468 11.8431.5567 14.5859-4.6817.026-.043.05-.087.074-.1308.094-.2041.4962-.5793.7012-.6719.01.012.021.025.031.037.2204.189.5814.6957 1.1368 1.5351.5247.793 1.3452 1.8958 2.6504 2.7832 4.8443 3.7618 11.9443 2.7387 15.5527-2.1777 3.0526-3.9129 2.945-9.2912.2285-13.1992l.1406.209c-3.5151-6.0465-6.9946-12.1463-10.5644-18.211-.05-.083-.1043-.164-.1621-.2421-4.3056-6.6319-15.4985-6.0452-19.3926 2.1582z" fill="#639ae2" transform="matrix(.26458333 0 0 .26458333 -.00001 -95.250011)"/><path d="m-392.90313 2341.2701c-.81914.027-1.55498.5759-1.88604 1.3114-.90496 1.5725-1.82426 3.1373-2.72016 4.7147-.52349 1.0142-.0362 2.3747 1.00322 2.8391.97392.4979 2.27841.08 2.78433-.8862.2472-.5343.98201-.9284 1.47228-.4483.3753.321.51275.8433.94532 1.1141.89263.713 2.32322.5049 2.98933-.4158.57232-.7233.5552-1.7876.0368-2.5334-.93242-1.6039-1.85172-3.2172-2.79232-4.8152-.41576-.5756-1.12244-.9157-1.83281-.8804z" fill="#4f5bab"/></g><g transform="matrix(1.4678879 0 0 1.4678879 -141.678961 -3299.8132)"><path d="m-398.05451 2354.7417h11.17854c.47937 0 .86529.3859.86529.8653s-.38592.8653-.86529.8653h-11.17854c-.47937 0-.86529-.3859-.86529-.8653s.38592-.8653.86529-.8653z" fill="#165632"/><path d="m-398.05451 2354.7417h2.57246c.47937 0 .86529.3859.86529.8653s-.38592.8653-.86529.8653h-2.57246c-.47937 0-.86529-.3859-.86529-.8653s.38592-.8653.86529-.8653z" fill="#36cc89"/></g></g><path d="m-766.20197 37.440554a38.880061 38.880061 0 0 0 -35.80402 23.725701l-.16434 29.844598a38.880061 38.880061 0 0 0 35.96836 24.189797 38.880061 38.880061 0 0 0 38.88031-38.879797 38.880061 38.880061 0 0 0 -38.88031-38.880299z" fill="#812ba7" opacity=".123"/><path d="m-767.65718 105.97585a43.370191 43.370191 0 0 0 -34.69193 17.43l-.28371 51.4976a43.370191 43.370191 0 0 0 .79375 1.1105l68.02996.3814a43.370191 43.370191 0 0 0 9.52189-27.0495 43.370191 43.370191 0 0 0 -43.36996-43.37z" fill="#812ba7" opacity=".123"/><g stroke-width=".385751" transform="matrix(-2.5040096 .67094735 .67094735 2.5040096 -3262.6123 -5537.2541)"><path d="m-363.05056 2360.3996c-3.33404 0-6.07721 2.7431-6.07721 6.0771v1.5074c0 3.3351 2.74514 6.0753 6.07721 6.0753h1.50727c3.33311 0 6.07536-2.7422 6.07536-6.0753v-1.5074c0-3.332-2.74027-6.0771-6.07536-6.0771z" fill="#fff"/><path d="m-363.05056 2361.2421c-2.87202 0-5.2347 2.3626-5.2347 5.2346v1.5074c0 2.8729 2.36442 5.2328 5.2347 5.2328h1.50727c2.87111 0 5.23285-2.3617 5.23285-5.2328v-1.5074c0-2.8702-2.36-5.2346-5.23285-5.2346z" fill="#fcb479"/><path d="m-363.0918 2362.8789c-1.94812 0-3.55664 1.6084-3.55664 3.5566v1.5899c0 1.9482 1.60978 3.5547 3.55664 3.5547h1.58985c1.94686 0 3.55468-1.6078 3.55468-3.5547v-1.5899c0-1.9469-1.60656-3.5566-3.55468-3.5566z" fill="#dd6c56"/><path d="m-363.09234 2364.1428h1.59026c1.26967 0 2.29183 1.0221 2.29183 2.2918v1.5903c0 1.2697-1.02216 2.2918-2.29183 2.2918h-1.59026c-1.26967 0-2.29183-1.0221-2.29183-2.2918v-1.5903c0-1.2697 1.02216-2.2918 2.29183-2.2918z" fill="#56294e"/></g><g stroke-width=".491306" transform="matrix(-1.9660372 .52679807 .52679807 1.9660372 -2725.5455 -4386.883)"><path d="m-363.05056 2360.3996c-3.33404 0-6.07721 2.7431-6.07721 6.0771v1.5074c0 3.3351 2.74514 6.0753 6.07721 6.0753h1.50727c3.33311 0 6.07536-2.7422 6.07536-6.0753v-1.5074c0-3.332-2.74027-6.0771-6.07536-6.0771z" fill="#fff"/><path d="m-363.05056 2361.2421c-2.87202 0-5.2347 2.3626-5.2347 5.2346v1.5074c0 2.8729 2.36442 5.2328 5.2347 5.2328h1.50727c2.87111 0 5.23285-2.3617 5.23285-5.2328v-1.5074c0-2.8702-2.36-5.2346-5.23285-5.2346z" fill="#fcb479"/><path d="m-363.0918 2362.8789c-1.94812 0-3.55664 1.6084-3.55664 3.5566v1.5899c0 1.9482 1.60978 3.5547 3.55664 3.5547h1.58985c1.94686 0 3.55468-1.6078 3.55468-3.5547v-1.5899c0-1.9469-1.60656-3.5566-3.55468-3.5566z" fill="#dd6c56"/><path d="m-363.09234 2364.1428h1.59026c1.26967 0 2.29183 1.0221 2.29183 2.2918v1.5903c0 1.2697-1.02216 2.2918-2.29183 2.2918h-1.59026c-1.26967 0-2.29183-1.0221-2.29183-2.2918v-1.5903c0-1.2697 1.02216-2.2918 2.29183-2.2918z" fill="#56294e"/></g><path d="m-456.14166 41.110055-354.5417-10.7447v-20.3112h354.5417z" fill="#239368"/><path d="m-810.68336 57.598354 354.54148-33.433699v-14.1105h-354.54148z" opacity=".394"/><path d="m-810.68336 53.791254 354.54148-33.433699v-10.3034h-354.54148z" fill="url(#a)"/><g stroke-width=".775853" transform="matrix(-1.2773166 -.17244636 -.17244636 1.2773166 -596.85004 -2928.0167)"><path d="m-1494.9453 9212.5684.1406-.2715c-3.411 5.927-6.89 11.8461-10.291 17.834-.02.036-.04.073-.059.1093-2.8417 5.5057-.3694 12.3601 5.2266 14.92 5.2913 2.6468 11.8431.5567 14.5859-4.6817.026-.043.05-.087.074-.1308.094-.2041.4962-.5793.7012-.6719.01.012.021.025.031.037.2204.189.5814.6957 1.1368 1.5351.5247.793 1.3452 1.8958 2.6504 2.7832 4.8443 3.7618 11.9443 2.7387 15.5527-2.1777 3.0526-3.9129 2.945-9.2912.2285-13.1992l.1406.209c-3.5151-6.0465-6.9946-12.1463-10.5644-18.211-.05-.083-.1043-.164-.1621-.2421-4.3056-6.6319-15.4985-6.0452-19.3926 2.1582z" fill="#eda495" transform="matrix(.26458333 0 0 .26458333 -.00001 -95.250011)"/><path d="m-392.90313 2341.2701c-.81914.027-1.55498.5759-1.88604 1.3114-.90496 1.5725-1.82426 3.1373-2.72016 4.7147-.52349 1.0142-.0362 2.3747 1.00322 2.8391.97392.4979 2.27841.08 2.78433-.8862.2472-.5343.98201-.9284 1.47228-.4483.3753.321.51275.8433.94532 1.1141.89263.713 2.32322.5049 2.98933-.4158.57232-.7233.5552-1.7876.0368-2.5334-.93242-1.6039-1.85172-3.2172-2.79232-4.8152-.41576-.5756-1.12244-.9157-1.83281-.8804z" fill="#e86859"/></g><path d="m-504.88053 104.57615h16.40882c.70368 0 1.27016.5665 1.27016 1.2702s-.56648 1.2702-1.27016 1.2702h-16.40882c-.70366 0-1.27016-.5665-1.27016-1.2702s.5665-1.2702 1.27016-1.2702z" fill="#d72828"/><g stroke-width=".952124" transform="matrix(-.89092932 -.55618269 -.55618269 .89092932 435.38097 -2168.8335)"><path d="m-1494.9453 9212.5684.1406-.2715c-3.411 5.927-6.89 11.8461-10.291 17.834-.02.036-.04.073-.059.1093-2.8417 5.5057-.3694 12.3601 5.2266 14.92 5.2913 2.6468 11.8431.5567 14.5859-4.6817.026-.043.05-.087.074-.1308.094-.2041.4962-.5793.7012-.6719.01.012.021.025.031.037.2204.189.5814.6957 1.1368 1.5351.5247.793 1.3452 1.8958 2.6504 2.7832 4.8443 3.7618 11.9443 2.7387 15.5527-2.1777 3.0526-3.9129 2.945-9.2912.2285-13.1992l.1406.209c-3.5151-6.0465-6.9946-12.1463-10.5644-18.211-.05-.083-.1043-.164-.1621-.2421-4.3056-6.6319-15.4985-6.0452-19.3926 2.1582z" fill="#eda495" transform="matrix(.26458333 0 0 .26458333 -.00001 -95.250011)"/><path d="m-392.90313 2341.2701c-.81914.027-1.55498.5759-1.88604 1.3114-.90496 1.5725-1.82426 3.1373-2.72016 4.7147-.52349 1.0142-.0362 2.3747 1.00322 2.8391.97392.4979 2.27841.08 2.78433-.8862.2472-.5343.98201-.9284 1.47228-.4483.3753.321.51275.8433.94532 1.1141.89263.713 2.32322.5049 2.98933-.4158.57232-.7233.5552-1.7876.0368-2.5334-.93242-1.6039-1.85172-3.2172-2.79232-4.8152-.41576-.5756-1.12244-.9157-1.83281-.8804z" fill="#e86859"/></g><g stroke-width="1.1929" transform="matrix(-.70471718 -.45398664 -.45398664 .70471718 274.25807 -1675.9314)"><path d="m-1494.9453 9212.5684.1406-.2715c-3.411 5.927-6.89 11.8461-10.291 17.834-.02.036-.04.073-.059.1093-2.8417 5.5057-.3694 12.3601 5.2266 14.92 5.2913 2.6468 11.8431.5567 14.5859-4.6817.026-.043.05-.087.074-.1308.094-.2041.4962-.5793.7012-.6719.01.012.021.025.031.037.2204.189.5814.6957 1.1368 1.5351.5247.793 1.3452 1.8958 2.6504 2.7832 4.8443 3.7618 11.9443 2.7387 15.5527-2.1777 3.0526-3.9129 2.945-9.2912.2285-13.1992l.1406.209c-3.5151-6.0465-6.9946-12.1463-10.5644-18.211-.05-.083-.1043-.164-.1621-.2421-4.3056-6.6319-15.4985-6.0452-19.3926 2.1582z" fill="#eda495" transform="matrix(.26458333 0 0 .26458333 -.00001 -95.250011)"/><path d="m-392.90313 2341.2701c-.81914.027-1.55498.5759-1.88604 1.3114-.90496 1.5725-1.82426 3.1373-2.72016 4.7147-.52349 1.0142-.0362 2.3747 1.00322 2.8391.97392.4979 2.27841.08 2.78433-.8862.2472-.5343.98201-.9284 1.47228-.4483.3753.321.51275.8433.94532 1.1141.89263.713 2.32322.5049 2.98933-.4158.57232-.7233.5552-1.7876.0368-2.5334-.93242-1.6039-1.85172-3.2172-2.79232-4.8152-.41576-.5756-1.12244-.9157-1.83281-.8804z" fill="#e86859"/></g><g stroke-width=".816495" transform="matrix(-.74045985 -.97556355 -.97556355 .74045985 1462.4214 -1964.9769)"><path d="m-1494.9453 9212.5684.1406-.2715c-3.411 5.927-6.89 11.8461-10.291 17.834-.02.036-.04.073-.059.1093-2.8417 5.5057-.3694 12.3601 5.2266 14.92 5.2913 2.6468 11.8431.5567 14.5859-4.6817.026-.043.05-.087.074-.1308.094-.2041.4962-.5793.7012-.6719.01.012.021.025.031.037.2204.189.5814.6957 1.1368 1.5351.5247.793 1.3452 1.8958 2.6504 2.7832 4.8443 3.7618 11.9443 2.7387 15.5527-2.1777 3.0526-3.9129 2.945-9.2912.2285-13.1992l.1406.209c-3.5151-6.0465-6.9946-12.1463-10.5644-18.211-.05-.083-.1043-.164-.1621-.2421-4.3056-6.6319-15.4985-6.0452-19.3926 2.1582z" fill="#eda495" transform="matrix(.26458333 0 0 .26458333 -.00001 -95.250011)"/><path d="m-392.90313 2341.2701c-.81914.027-1.55498.5759-1.88604 1.3114-.90496 1.5725-1.82426 3.1373-2.72016 4.7147-.52349 1.0142-.0362 2.3747 1.00322 2.8391.97392.4979 2.27841.08 2.78433-.8862.2472-.5343.98201-.9284 1.47228-.4483.3753.321.51275.8433.94532 1.1141.89263.713 2.32322.5049 2.98933-.4158.57232-.7233.5552-1.7876.0368-2.5334-.93242-1.6039-1.85172-3.2172-2.79232-4.8152-.41576-.5756-1.12244-.9157-1.83281-.8804z" fill="#e86859"/></g><g stroke-width="1.12396" transform="matrix(-.24391296 -.85562202 -.85562202 .24391296 1356.3151 -752.12788)"><path d="m-1494.9453 9212.5684.1406-.2715c-3.411 5.927-6.89 11.8461-10.291 17.834-.02.036-.04.073-.059.1093-2.8417 5.5057-.3694 12.3601 5.2266 14.92 5.2913 2.6468 11.8431.5567 14.5859-4.6817.026-.043.05-.087.074-.1308.094-.2041.4962-.5793.7012-.6719.01.012.021.025.031.037.2204.189.5814.6957 1.1368 1.5351.5247.793 1.3452 1.8958 2.6504 2.7832 4.8443 3.7618 11.9443 2.7387 15.5527-2.1777 3.0526-3.9129 2.945-9.2912.2285-13.1992l.1406.209c-3.5151-6.0465-6.9946-12.1463-10.5644-18.211-.05-.083-.1043-.164-.1621-.2421-4.3056-6.6319-15.4985-6.0452-19.3926 2.1582z" fill="#eda495" transform="matrix(.26458333 0 0 .26458333 -.00001 -95.250011)"/><path d="m-392.90313 2341.2701c-.81914.027-1.55498.5759-1.88604 1.3114-.90496 1.5725-1.82426 3.1373-2.72016 4.7147-.52349 1.0142-.0362 2.3747 1.00322 2.8391.97392.4979 2.27841.08 2.78433-.8862.2472-.5343.98201-.9284 1.47228-.4483.3753.321.51275.8433.94532 1.1141.89263.713 2.32322.5049 2.98933-.4158.57232-.7233.5552-1.7876.0368-2.5334-.93242-1.6039-1.85172-3.2172-2.79232-4.8152-.41576-.5756-1.12244-.9157-1.83281-.8804z" fill="#e86859"/></g></g></svg>